<?xml version="1.0" encoding="UTF-8"?>
<svg width="108px" height="108px" viewBox="0 0 108 108" version="1.1" xmlns="http://www.w3.org/2000/svg" xmlns:xlink="http://www.w3.org/1999/xlink">
    <title>Artboard</title>
    <g id="Artboard" stroke="none" stroke-width="1" fill="none" fill-rule="evenodd">
        <g id="scbs_logo" transform="translate(7.363636, 0.000000)" fill-rule="nonzero">
            <polygon id="Path" fill="#F64C72" opacity="0.595" points="0 22.0639091 45.2900455 0 45.2900455 56.7994091 0 81.2908636"></polygon>
            <polygon id="Path" fill="#F64C72" opacity="0.6" points="23.2261364 33.5794091 67.3551818 10.4514545 67.3551818 67.5932727 23.2261364 94.0643182"></polygon>
            <polygon id="Path" fill="#F64C72" opacity="0.396" points="0 22.0639091 0 81.2908636 47.6132727 108 47.6132727 45.6680455"></polygon>
            <polygon id="Path" fill="#F64C72" opacity="0.396" points="45.2900455 0 45.2900455 56.2262727 91.7423182 80.1286364 91.7423182 22.0909091"></polygon>
            <polygon id="Path" fill="#F64C72" opacity="0.396" points="23.2261364 10.4514545 23.2261364 67.9823182 72.0004091 92.9033182 72.0004091 32.7289091"></polygon>
            <g id="Group" transform="translate(47.613273, 22.090909)">
                <polygon id="Path" fill="#FFFFFF" points="44.1290455 1.88201727e-15 44.1290455 58.6918636 0 85.7532273 0 23.5341818"></polygon>
                <g transform="translate(0.000000, 0.670091)" fill="#000000" id="Oval">
                    <circle cx="1.7415" cy="26.2452273" r="1.7415"></circle>
                    <circle cx="1.7415" cy="54.1165909" r="1.7415"></circle>
                    <circle cx="1.7415" cy="68.0510455" r="1.7415"></circle>
                    <circle cx="1.7415" cy="81.9867273" r="1.7415"></circle>
                    <circle cx="1.7415" cy="61.0838182" r="1.7415"></circle>
                    <circle cx="1.7415" cy="75.0195" r="1.7415"></circle>
                    <circle cx="43.5485455" cy="56.7871364" r="1.7415"></circle>
                    <circle cx="37.7423182" cy="59.9228182" r="1.7415"></circle>
                    <circle cx="31.9360909" cy="63.639" r="1.7415"></circle>
                    <circle cx="26.1286364" cy="67.2385909" r="1.7415"></circle>
                    <circle cx="20.3224091" cy="70.7228182" r="1.7415"></circle>
                    <circle cx="14.5161818" cy="74.2070455" r="1.7415"></circle>
                    <circle cx="8.24481818" cy="78.1551818" r="1.7415"></circle>
                    <circle cx="43.5485455" cy="35.8842273" r="1.7415"></circle>
                    <circle cx="43.5485455" cy="49.8199091" r="1.7415"></circle>
                    <circle cx="43.5485455" cy="28.9157727" r="1.7415"></circle>
                    <circle cx="43.5485455" cy="14.9800909" r="1.7415"></circle>
                    <circle cx="43.5485455" cy="42.8514545" r="1.7415"></circle>
                    <circle cx="43.5485455" cy="21.9485455" r="1.7415"></circle>
                    <circle cx="43.5485455" cy="8.01286364" r="1.7415"></circle>
                    <circle cx="43.5485455" cy="1.7415" r="1.7415"></circle>
                    <circle cx="12.1929545" cy="18.3489545" r="1.7415"></circle>
                    <circle cx="5.57427273" cy="21.8319545" r="1.7415"></circle>
                    <circle cx="18.6962727" cy="14.9800909" r="1.7415"></circle>
                    <circle cx="24.9676364" cy="11.4970909" r="1.7415"></circle>
                    <circle cx="31.4709545" cy="8.12945455" r="1.7415"></circle>
                    <circle cx="37.7423182" cy="4.87718182" r="1.7415"></circle>
                    <circle cx="1.7415" cy="40.1809091" r="1.7415"></circle>
                    <circle cx="1.7415" cy="33.2124545" r="1.7415"></circle>
                    <circle cx="1.7415" cy="47.1481364" r="1.7415"></circle>
                </g>
            </g>
        </g>
    </g>
</svg>