<svg xmlns="http://www.w3.org/2000/svg" width="108" height="108" viewBox="0 0 108 108">
  <g fill="none" transform="translate(0 12)">
    <path fill="#000" d="M59.2941176 26.9691358C59.2941176 25.2901235 57.9176471 24.0308642 56.3294118 24.0308642 54.6352941 24.0308642 53.3647059 25.3950617 53.3647059 26.9691358 53.3647059 28.6481481 54.7411765 29.9074074 56.3294118 29.9074074 58.0235294 29.9074074 59.2941176 28.5432099 59.2941176 26.9691358M67.0235294 31.3765432C67.0235294 29.6975309 65.6470588 28.4382716 64.0588235 28.4382716 62.3647059 28.4382716 61.0941176 29.8024691 61.0941176 31.3765432 61.0941176 33.0555556 62.4705882 34.3148148 64.0588235 34.3148148 65.6470588 34.3148148 67.0235294 32.9506173 67.0235294 31.3765432M67.0235294 40.0864198C67.0235294 38.4074074 65.6470588 37.1481481 64.0588235 37.1481481 62.3647059 37.1481481 61.0941176 38.5123457 61.0941176 40.0864198 61.0941176 41.7654321 62.4705882 43.0246914 64.0588235 43.0246914 65.6470588 43.1296296 67.0235294 41.7654321 67.0235294 40.0864198M59.2941176 44.4938272C59.2941176 42.8148148 57.9176471 41.5555556 56.3294118 41.5555556 54.6352941 41.5555556 53.3647059 42.9197531 53.3647059 44.4938272 53.3647059 46.1728395 54.7411765 47.4320988 56.3294118 47.4320988 58.0235294 47.537037 59.2941176 46.1728395 59.2941176 44.4938272M51.6705882 40.0864198C51.6705882 38.4074074 50.2941176 37.1481481 48.7058824 37.1481481 47.0117647 37.1481481 45.7411765 38.5123457 45.7411765 40.0864198 45.7411765 41.7654321 47.1176471 43.0246914 48.7058824 43.0246914 50.2941176 43.1296296 51.6705882 41.7654321 51.6705882 40.0864198M51.6705882 31.3765432C51.6705882 29.6975309 50.2941176 28.4382716 48.7058824 28.4382716 47.0117647 28.4382716 45.7411765 29.8024691 45.7411765 31.3765432 45.7411765 33.0555556 47.1176471 34.3148148 48.7058824 34.3148148 50.2941176 34.3148148 51.6705882 32.9506173 51.6705882 31.3765432M59.2941176 18.154321C59.2941176 16.4753086 57.9176471 15.2160494 56.3294118 15.2160494 54.6352941 15.2160494 53.3647059 16.5802469 53.3647059 18.154321 53.3647059 19.8333333 54.7411765 21.0925926 56.3294118 21.0925926 58.0235294 21.0925926 59.2941176 19.8333333 59.2941176 18.154321M68.1882353 20.462963C68.1882353 18.7839506 66.8117647 17.5246914 65.2235294 17.5246914 63.5294118 17.5246914 62.2588235 18.8888889 62.2588235 20.462963 62.2588235 22.1419753 63.6352941 23.4012346 65.2235294 23.4012346 66.8117647 23.5061728 68.1882353 22.1419753 68.1882353 20.462963M74.6470588 26.9691358C74.6470588 25.2901235 73.2705882 24.0308642 71.6823529 24.0308642 70.0941176 24.0308642 68.7176471 25.3950617 68.7176471 26.9691358 68.7176471 28.6481481 70.0941176 29.9074074 71.6823529 29.9074074 73.2705882 29.9074074 74.6470588 28.5432099 74.6470588 26.9691358M77.0823529 35.7839506C77.0823529 34.1049383 75.7058824 32.845679 74.1176471 32.845679 72.4235294 32.845679 71.1529412 34.2098765 71.1529412 35.7839506 71.1529412 37.462963 72.5294118 38.7222222 74.1176471 38.7222222 75.7058824 38.7222222 77.0823529 37.3580247 77.0823529 35.7839506M74.6470588 44.4938272C74.6470588 42.8148148 73.2705882 41.5555556 71.6823529 41.5555556 70.0941176 41.5555556 68.7176471 42.9197531 68.7176471 44.4938272 68.7176471 46.1728395 70.0941176 47.4320988 71.6823529 47.4320988 73.2705882 47.4320988 74.6470588 46.1728395 74.6470588 44.4938272M68.1882353 51C68.1882353 49.3209877 66.8117647 48.0617284 65.2235294 48.0617284 63.5294118 48.0617284 62.2588235 49.4259259 62.2588235 51 62.2588235 52.6790123 63.6352941 53.9382716 65.2235294 53.9382716 66.8117647 53.9382716 68.1882353 52.5740741 68.1882353 51M59.2941176 53.308642C59.2941176 51.6296296 57.9176471 50.3703704 56.3294118 50.3703704 54.6352941 50.3703704 53.3647059 51.7345679 53.3647059 53.308642 53.3647059 54.9876543 54.7411765 56.2469136 56.3294118 56.2469136 58.0235294 56.2469136 59.2941176 54.9876543 59.2941176 53.308642M50.4 51C50.4 49.3209877 49.0235294 48.0617284 47.4352941 48.0617284 45.7411765 48.0617284 44.4705882 49.4259259 44.4705882 51 44.4705882 52.6790123 45.8470588 53.9382716 47.4352941 53.9382716 49.1294118 53.9382716 50.4 52.5740741 50.4 51M43.9411765 44.4938272C43.9411765 42.8148148 42.5647059 41.5555556 40.9764706 41.5555556 39.2823529 41.5555556 38.0117647 42.9197531 38.0117647 44.4938272 38.0117647 46.1728395 39.3882353 47.4320988 40.9764706 47.4320988 42.5647059 47.537037 43.9411765 46.1728395 43.9411765 44.4938272M41.6117647 35.7839506C41.6117647 34.1049383 40.2352941 32.845679 38.6470588 32.845679 36.9529412 32.845679 35.6823529 34.2098765 35.6823529 35.7839506 35.6823529 37.462963 37.0588235 38.7222222 38.6470588 38.7222222 40.2352941 38.7222222 41.6117647 37.3580247 41.6117647 35.7839506M43.9411765 26.9691358C43.9411765 25.2901235 42.5647059 24.0308642 40.9764706 24.0308642 39.2823529 24.0308642 38.0117647 25.3950617 38.0117647 26.9691358 38.0117647 28.6481481 39.3882353 29.9074074 40.9764706 29.9074074 42.5647059 29.9074074 43.9411765 28.5432099 43.9411765 26.9691358M50.4 20.462963C50.4 18.7839506 49.0235294 17.5246914 47.4352941 17.5246914 45.7411765 17.5246914 44.4705882 18.8888889 44.4705882 20.462963 44.4705882 22.1419753 45.8470588 23.4012346 47.4352941 23.4012346 49.1294118 23.5061728 50.4 22.1419753 50.4 20.462963M58.9764706 9.33950617C58.9764706 7.87037037 57.8117647 6.71604938 56.3294118 6.71604938 54.8470588 6.71604938 53.6823529 7.87037037 53.6823529 9.33950617 53.6823529 10.808642 54.8470588 11.962963 56.3294118 11.962963 57.8117647 11.962963 58.9764706 10.808642 58.9764706 9.33950617M68.2941176 10.9135802C68.2941176 9.33950617 67.0235294 8.08024691 65.4352941 8.08024691 63.8470588 8.08024691 62.5764706 9.33950617 62.5764706 10.9135802 62.5764706 12.4876543 63.8470588 13.7469136 65.4352941 13.7469136 67.0235294 13.7469136 68.2941176 12.4876543 68.2941176 10.9135802M73.6941176 15.5308642C73.6941176 15.4259259 73.5882353 15.2160494 73.3764706 15.2160494 73.2705882 15.2160494 73.0588235 15.3209877 73.0588235 15.5308642 73.0588235 15.6358025 73.1647059 15.845679 73.3764706 15.845679 73.5882353 15.845679 73.6941176 15.6358025 73.6941176 15.5308642M80.7882353 22.5617284C80.7882353 21.8271605 80.1529412 21.1975309 79.4117647 21.1975309 78.6705882 21.1975309 78.0352941 21.8271605 78.0352941 22.5617284 78.0352941 23.2962963 78.6705882 23.9259259 79.4117647 23.9259259 80.1529412 23.9259259 80.7882353 23.2962963 80.7882353 22.5617284M84.9176471 31.1666667C84.9176471 29.8024691 83.8588235 28.7530864 82.4823529 28.7530864 81.1058824 28.7530864 80.0470588 29.8024691 80.0470588 31.1666667 80.0470588 32.5308642 81.1058824 33.5802469 82.4823529 33.5802469 83.8588235 33.5802469 84.9176471 32.4259259 84.9176471 31.1666667M85.5529412 40.2962963C85.5529412 38.617284 84.1764706 37.3580247 82.5882353 37.3580247 80.8941176 37.3580247 79.6235294 38.7222222 79.6235294 40.2962963 79.6235294 41.8703704 81 43.2345679 82.5882353 43.2345679 84.1764706 43.2345679 85.5529412 41.9753086 85.5529412 40.2962963M82.3764706 48.9012346C82.3764706 47.2222222 81 45.962963 79.4117647 45.962963 77.8235294 45.962963 76.4470588 47.3271605 76.4470588 48.9012346 76.4470588 50.5802469 77.8235294 51.8395062 79.4117647 51.8395062 81 51.8395062 82.3764706 50.5802469 82.3764706 48.9012346M76.4470588 55.9320988C76.4470588 54.2530864 75.0705882 52.9938272 73.4823529 52.9938272 71.7882353 52.9938272 70.5176471 54.3580247 70.5176471 55.9320988 70.5176471 57.6111111 71.8941176 58.8703704 73.4823529 58.8703704 75.0705882 58.8703704 76.4470588 57.6111111 76.4470588 55.9320988M67.8705882 60.5493827C67.8705882 59.1851852 66.8117647 58.1358025 65.4352941 58.1358025 64.0588235 58.1358025 63 59.1851852 63 60.5493827 63 61.9135802 64.0588235 62.962963 65.4352941 62.962963 66.8117647 62.962963 67.8705882 61.808642 67.8705882 60.5493827M58.6588235 62.1234568C58.6588235 60.8641975 57.6 59.8148148 56.3294118 59.8148148 55.0588235 59.8148148 54 60.8641975 54 62.1234568 54 63.382716 55.0588235 64.4320988 56.3294118 64.4320988 57.6 64.4320988 58.6588235 63.382716 58.6588235 62.1234568M50.1882353 60.5493827C50.1882353 58.8703704 48.8117647 57.6111111 47.2235294 57.6111111 45.5294118 57.6111111 44.2588235 58.9753086 44.2588235 60.5493827 44.2588235 62.2283951 45.6352941 63.4876543 47.2235294 63.4876543 48.9176471 63.4876543 50.1882353 62.1234568 50.1882353 60.5493827M42.2470588 55.9320988C42.2470588 54.2530864 40.8705882 52.9938272 39.2823529 52.9938272 37.5882353 52.9938272 36.3176471 54.3580247 36.3176471 55.9320988 36.3176471 57.6111111 37.6941176 58.8703704 39.2823529 58.8703704 40.8705882 58.8703704 42.2470588 57.6111111 42.2470588 55.9320988M36.3176471 48.9012346C36.3176471 47.2222222 34.9411765 45.962963 33.3529412 45.962963 31.6588235 45.962963 30.3882353 47.3271605 30.3882353 48.9012346 30.3882353 50.5802469 31.7647059 51.8395062 33.3529412 51.8395062 34.9411765 51.8395062 36.3176471 50.5802469 36.3176471 48.9012346M33.1411765 40.2962963C33.1411765 38.617284 31.7647059 37.3580247 30.1764706 37.3580247 28.4823529 37.3580247 27.2117647 38.7222222 27.2117647 40.2962963 27.2117647 41.8703704 28.5882353 43.2345679 30.1764706 43.2345679 31.7647059 43.2345679 33.1411765 41.9753086 33.1411765 40.2962963M33.1411765 31.1666667C33.1411765 29.4876543 31.7647059 28.2283951 30.1764706 28.2283951 28.4823529 28.2283951 27.2117647 29.5925926 27.2117647 31.1666667 27.2117647 32.845679 28.5882353 34.1049383 30.1764706 34.1049383 31.7647059 34.1049383 33.1411765 32.7407407 33.1411765 31.1666667M42.2470588 15.5308642C42.2470588 13.8518519 40.8705882 12.5925926 39.2823529 12.5925926 37.5882353 12.5925926 36.3176471 13.9567901 36.3176471 15.5308642 36.3176471 17.2098765 37.6941176 18.4691358 39.2823529 18.4691358 40.8705882 18.4691358 42.2470588 17.2098765 42.2470588 15.5308642M49.0235294 10.9135802C49.0235294 9.9691358 48.2823529 9.2345679 47.3294118 9.2345679 46.3764706 9.2345679 45.6352941 9.9691358 45.6352941 10.9135802 45.6352941 11.8580247 46.3764706 12.5925926 47.3294118 12.5925926 48.1764706 12.6975309 49.0235294 11.8580247 49.0235294 10.9135802M56.3294118.524691358C56.3294118.524691358 56.3294118.524691358 56.3294118.524691358 56.3294118.524691358 56.3294118.524691358 56.3294118.524691358 56.3294118.62962963 56.3294118.62962963 56.3294118.524691358 56.3294118.62962963 56.3294118.62962963 56.3294118.524691358M66.6 1.67901235C66.6.839506173 65.9647059.209876543 65.1176471.209876543 64.2705882.209876543 63.6352941.839506173 63.6352941 1.67901235 63.6352941 2.51851852 64.2705882 3.14814815 65.1176471 3.14814815 65.9647059 3.14814815 66.6 2.51851852 66.6 1.67901235M73.9058824 4.93209877C73.9058824 4.72222222 73.6941176 4.51234568 73.4823529 4.51234568 73.2705882 4.51234568 73.0588235 4.72222222 73.0588235 4.93209877 73.0588235 5.14197531 73.2705882 5.35185185 73.4823529 5.35185185 73.6941176 5.35185185 73.9058824 5.14197531 73.9058824 4.93209877M92.5411765 33.4753086C92.5411765 33.0555556 92.2235294 32.7407407 91.8 32.7407407 91.3764706 32.7407407 91.0588235 33.0555556 91.0588235 33.4753086 91.0588235 33.8950617 91.3764706 34.2098765 91.8 34.2098765 92.2235294 34.3148148 92.5411765 34 92.5411765 33.4753086M91.5882353 42.2901235C91.5882353 42.0802469 91.4823529 41.9753086 91.2705882 41.9753086 91.0588235 41.9753086 90.9529412 42.0802469 90.9529412 42.2901235 90.9529412 42.5 91.0588235 42.6049383 91.2705882 42.6049383 91.3764706 42.7098765 91.5882353 42.5 91.5882353 42.2901235M90.7411765 50.6851852C90.7411765 49.4259259 89.6823529 48.3765432 88.4117647 48.3765432 87.1411765 48.3765432 86.0823529 49.4259259 86.0823529 50.6851852 86.0823529 51.9444444 87.1411765 52.9938272 88.4117647 52.9938272 89.6823529 52.9938272 90.7411765 51.9444444 90.7411765 50.6851852M86.7176471 58.1358025C86.7176471 56.4567901 85.3411765 55.1975309 83.7529412 55.1975309 82.1647059 55.1975309 80.7882353 56.5617284 80.7882353 58.1358025 80.7882353 59.8148148 82.1647059 61.0740741 83.7529412 61.0740741 85.3411765 61.0740741 86.7176471 59.8148148 86.7176471 58.1358025M80.1529412 64.2222222C80.1529412 62.6481481 78.8823529 61.2839506 77.1882353 61.2839506 75.6 61.2839506 74.2235294 62.5432099 74.2235294 64.2222222 74.2235294 65.7962963 75.4941176 67.1604938 77.1882353 67.1604938 78.7764706 67.0555556 80.1529412 65.7962963 80.1529412 64.2222222M69.9882353 68.4197531C69.9882353 68.1049383 69.7764706 67.7901235 69.3529412 67.7901235 69.0352941 67.7901235 68.7176471 68 68.7176471 68.4197531 68.7176471 68.7345679 68.9294118 69.0493827 69.3529412 69.0493827 69.6705882 69.0493827 69.9882353 68.7345679 69.9882353 68.4197531M60.8823529 70.6234568C60.8823529 70.6234568 60.8823529 70.5185185 60.8823529 70.6234568 60.6705882 70.5185185 60.6705882 70.5185185 60.6705882 70.6234568 60.6705882 70.7283951 60.6705882 70.7283951 60.8823529 70.6234568 60.8823529 70.7283951 60.8823529 70.7283951 60.8823529 70.6234568M53.2588235 70.6234568C53.2588235 69.8888889 52.6235294 69.2592593 51.8823529 69.2592593 51.1411765 69.2592593 50.5058824 69.8888889 50.5058824 70.6234568 50.5058824 71.3580247 51.1411765 71.9876543 51.8823529 71.9876543 52.6235294 71.9876543 53.2588235 71.3580247 53.2588235 70.6234568M43.5176471 68.4197531C43.5176471 68.3148148 43.4117647 68.2098765 43.3058824 68.2098765 43.2 68.2098765 43.0941176 68.3148148 43.0941176 68.4197531 43.0941176 68.5246914 43.2 68.6296296 43.3058824 68.6296296 43.4117647 68.6296296 43.5176471 68.5246914 43.5176471 68.4197531M36.8470588 64.2222222C36.8470588 63.4876543 36.2117647 62.8580247 35.4705882 62.8580247 34.7294118 62.8580247 34.0941176 63.4876543 34.0941176 64.2222222 34.0941176 64.9567901 34.7294118 65.5864198 35.4705882 65.5864198 36.2117647 65.4814815 36.8470588 64.9567901 36.8470588 64.2222222M31.7647059 58.1358025C31.7647059 56.5617284 30.4941176 55.4074074 29.0117647 55.4074074 27.4235294 55.4074074 26.2588235 56.6666667 26.2588235 58.1358025 26.2588235 59.7098765 27.5294118 60.8641975 29.0117647 60.8641975 30.4941176 60.9691358 31.7647059 59.7098765 31.7647059 58.1358025M24.4588235 42.2901235C24.4588235 40.6111111 23.0823529 39.3518519 21.4941176 39.3518519 19.8 39.3518519 18.5294118 40.7160494 18.5294118 42.2901235 18.5294118 43.9691358 19.9058824 45.2283951 21.4941176 45.2283951 23.0823529 45.2283951 24.4588235 43.9691358 24.4588235 42.2901235M23.9294118 33.4753086C23.9294118 31.7962963 22.5529412 30.537037 20.9647059 30.537037 19.3764706 30.537037 18 31.9012346 18 33.4753086 18 35.154321 19.3764706 36.4135802 20.9647059 36.4135802 22.5529412 36.4135802 23.9294118 35.154321 23.9294118 33.4753086M25.5176471 24.8703704C25.5176471 23.191358 24.1411765 21.9320988 22.5529412 21.9320988 20.8588235 21.9320988 19.5882353 23.2962963 19.5882353 24.8703704 19.5882353 26.5493827 20.9647059 27.808642 22.5529412 27.808642 24.2470588 27.808642 25.5176471 26.5493827 25.5176471 24.8703704M28.5882353 16.8950617C28.5882353 15.6358025 27.6352941 14.691358 26.3647059 14.691358 25.0941176 14.691358 24.1411765 15.6358025 24.1411765 16.8950617 24.1411765 18.154321 25.0941176 19.0987654 26.3647059 19.0987654 27.6352941 19.0987654 28.5882353 18.0493827 28.5882353 16.8950617M34.0941176 10.0740741C34.0941176 8.91975309 33.1411765 7.97530864 31.9764706 7.97530864 30.8117647 7.97530864 29.8588235 8.91975309 29.8588235 10.0740741 29.8588235 11.2283951 30.8117647 12.1728395 31.9764706 12.1728395 33.1411765 12.1728395 34.0941176 11.2283951 34.0941176 10.0740741M40.1294118 4.93209877C40.1294118 4.40740741 39.7058824 4.09259259 39.2823529 4.09259259 38.8588235 4.09259259 38.4352941 4.51234568 38.4352941 4.93209877 38.4352941 5.45679012 38.8588235 5.77160494 39.2823529 5.77160494 39.7058824 5.77160494 40.1294118 5.35185185 40.1294118 4.93209877M99.4235294 46.8024691C99.4235294 46.6975309 99.3176471 46.6975309 99.3176471 46.6975309 99.2117647 46.6975309 99.2117647 46.8024691 99.2117647 46.8024691 99.2117647 46.9074074 99.3176471 46.9074074 99.3176471 46.9074074 99.3176471 46.9074074 99.4235294 46.8024691 99.4235294 46.8024691M99.1058824 55.0925926C99.1058824 53.5185185 97.8352941 52.154321 96.1411765 52.154321 94.5529412 52.154321 93.1764706 53.4135802 93.1764706 55.0925926 93.1764706 56.6666667 94.4470588 58.0308642 96.1411765 58.0308642 97.8352941 58.0308642 99.1058824 56.6666667 99.1058824 55.0925926M87.1411765 69.0493827C87.1411765 68 86.2941176 67.1604938 85.2352941 67.1604938 84.1764706 67.1604938 83.3294118 68 83.3294118 69.0493827 83.3294118 70.0987654 84.1764706 70.9382716 85.2352941 70.9382716 86.2941176 70.9382716 87.1411765 70.0987654 87.1411765 69.0493827M77.9294118 74.191358C77.9294118 74.191358 77.9294118 74.191358 77.9294118 74.191358 77.8235294 74.191358 77.8235294 74.191358 77.9294118 74.191358 77.8235294 74.191358 77.8235294 74.191358 77.9294118 74.191358 77.9294118 74.191358 77.9294118 74.191358 77.9294118 74.191358M27.4235294 69.0493827C27.4235294 69.0493827 27.4235294 69.0493827 27.4235294 69.0493827 27.4235294 69.0493827 27.4235294 69.0493827 27.4235294 69.0493827 27.4235294 69.154321 27.4235294 69.154321 27.4235294 69.0493827 27.4235294 69.154321 27.4235294 69.154321 27.4235294 69.0493827M22.7647059 62.6481481C22.7647059 61.808642 22.1294118 61.1790123 21.2823529 61.1790123 20.4352941 61.1790123 19.8 61.808642 19.8 62.6481481 19.8 63.4876543 20.4352941 64.117284 21.2823529 64.117284 22.0235294 64.117284 22.7647059 63.4876543 22.7647059 62.6481481M19.4823529 55.0925926C19.4823529 53.4135802 18.1058824 52.154321 16.5176471 52.154321 14.8235294 52.154321 13.5529412 53.5185185 13.5529412 55.0925926 13.5529412 56.7716049 14.9294118 58.0308642 16.5176471 58.0308642 18.1058824 58.0308642 19.4823529 56.7716049 19.4823529 55.0925926M15.4588235 46.8024691C15.4588235 45.6481481 14.5058824 44.808642 13.4470588 44.808642 12.2823529 44.808642 11.4352941 45.7530864 11.4352941 46.8024691 11.4352941 47.9567901 12.3882353 48.7962963 13.4470588 48.7962963 14.5058824 48.7962963 15.4588235 47.8518519 15.4588235 46.8024691M12.7058824 37.9876543C12.7058824 37.6728395 12.3882353 37.3580247 12.0705882 37.3580247 11.7529412 37.3580247 11.4352941 37.6728395 11.4352941 37.9876543 11.4352941 38.3024691 11.7529412 38.617284 12.0705882 38.617284 12.3882353 38.617284 12.7058824 38.3024691 12.7058824 37.9876543M13.8705882 29.0679012C13.8705882 28.3333333 13.2352941 27.7037037 12.3882353 27.7037037 11.5411765 27.7037037 11.0117647 28.3333333 11.0117647 29.0679012 11.0117647 29.8024691 11.6470588 30.4320988 12.4941176 30.4320988 13.3411765 30.4320988 13.8705882 29.9074074 13.8705882 29.0679012M16.0941176 20.462963C16.0941176 19.7283951 15.4588235 19.0987654 14.7176471 19.0987654 13.9764706 19.0987654 13.3411765 19.7283951 13.3411765 20.462963 13.3411765 21.1975309 13.9764706 21.8271605 14.7176471 21.8271605 15.4588235 21.8271605 16.0941176 21.1975309 16.0941176 20.462963M18.7411765 12.4876543C18.7411765 12.4876543 18.7411765 12.4876543 18.7411765 12.4876543 18.6352941 12.4876543 18.6352941 12.4876543 18.7411765 12.4876543 18.6352941 12.4876543 18.6352941 12.4876543 18.7411765 12.4876543 18.7411765 12.4876543 18.7411765 12.4876543 18.7411765 12.4876543M24.2470588 5.45679012C24.2470588 5.45679012 24.2470588 5.45679012 24.2470588 5.45679012 24.1411765 5.45679012 24.1411765 5.45679012 24.2470588 5.45679012 24.1411765 5.45679012 24.1411765 5.45679012 24.2470588 5.45679012 24.2470588 5.45679012 24.2470588 5.45679012 24.2470588 5.45679012M107.364706 51.2098765C107.364706 51.1049383 107.258824 51 107.152941 51 107.047059 51 106.941176 51.1049383 106.941176 51.2098765 106.941176 51.3148148 107.047059 51.4197531 107.152941 51.4197531 107.364706 51.3148148 107.364706 51.3148148 107.364706 51.2098765M106.094118 59.5C106.094118 58.2407407 105.141176 57.2962963 103.870588 57.2962963 102.6 57.2962963 101.647059 58.2407407 101.647059 59.5 101.647059 60.7592593 102.6 61.7037037 103.870588 61.7037037 105.141176 61.7037037 106.094118 60.654321 106.094118 59.5M101.435294 67.1604938C101.435294 65.9012346 100.376471 64.8518519 99.1058824 64.8518519 97.8352941 64.8518519 96.7764706 65.9012346 96.7764706 67.1604938 96.7764706 68.4197531 97.8352941 69.4691358 99.1058824 69.4691358 100.376471 69.4691358 101.435294 68.4197531 101.435294 67.1604938M95.0823529 73.8765432C95.0823529 72.8271605 94.2352941 71.9876543 93.1764706 71.9876543 92.1176471 71.9876543 91.2705882 72.8271605 91.2705882 73.8765432 91.2705882 74.9259259 92.1176471 75.7654321 93.1764706 75.7654321 94.2352941 75.7654321 95.0823529 74.9259259 95.0823529 73.8765432M86.1882353 79.4382716C86.1882353 79.4382716 86.1882353 79.4382716 86.1882353 79.4382716 86.0823529 79.4382716 86.0823529 79.4382716 86.1882353 79.4382716 86.0823529 79.4382716 86.0823529 79.4382716 86.1882353 79.4382716 86.1882353 79.4382716 86.1882353 79.4382716 86.1882353 79.4382716M14.8235294 67.1604938C14.8235294 66.4259259 14.1882353 65.7962963 13.4470588 65.7962963 12.7058824 65.7962963 12.0705882 66.4259259 12.0705882 67.1604938 12.0705882 67.8950617 12.7058824 68.5246914 13.4470588 68.5246914 14.1882353 68.5246914 14.8235294 67.7901235 14.8235294 67.1604938M10.2705882 59.5C10.2705882 58.7654321 9.63529412 58.0308642 8.89411765 58.0308642 8.15294118 58.0308642 7.51764706 58.6604938 7.51764706 59.5 7.51764706 60.3395062 8.04705882 60.8641975 8.78823529 60.8641975 9.63529412 60.8641975 10.2705882 60.2345679 10.2705882 59.5M5.61176471 51.2098765C5.61176471 51.1049383 5.50588235 51.1049383 5.50588235 51.1049383 5.4 51.1049383 5.4 51.2098765 5.4 51.2098765 5.4 51.3148148 5.50588235 51.3148148 5.50588235 51.3148148 5.50588235 51.3148148 5.61176471 51.3148148 5.61176471 51.2098765M101.117647 78.4938272C101.117647 78.4938272 101.117647 78.3888889 101.117647 78.4938272 101.011765 78.3888889 101.011765 78.4938272 101.117647 78.4938272 101.011765 78.4938272 101.011765 78.4938272 101.117647 78.4938272 101.117647 78.4938272 101.117647 78.4938272 101.117647 78.4938272M94.3411765 84.4753086C94.3411765 84.3703704 94.3411765 84.3703704 94.3411765 84.4753086 94.2352941 84.3703704 94.1294118 84.4753086 94.1294118 84.4753086 94.1294118 84.4753086 94.2352941 84.5802469 94.3411765 84.4753086 94.3411765 84.5802469 94.3411765 84.4753086 94.3411765 84.4753086M1.16470588 63.9074074C1.16470588 63.9074074 1.16470588 63.8024691 1.16470588 63.9074074 1.05882353 63.8024691 1.05882353 63.9074074 1.16470588 63.9074074 1.05882353 63.9074074 1.05882353 63.9074074 1.16470588 63.9074074 1.16470588 63.9074074 1.16470588 63.9074074 1.16470588 63.9074074"/>
    <path fill="#F7323F" d="M59.2941176 35.7839506C59.2941176 34.1049383 57.9176471 32.845679 56.3294118 32.845679 54.6352941 32.845679 53.3647059 34.2098765 53.3647059 35.7839506 53.3647059 37.462963 54.7411765 38.7222222 56.3294118 38.7222222 58.0235294 38.7222222 59.2941176 37.3580247 59.2941176 35.7839506M36.3176471 22.5617284C36.3176471 20.882716 34.9411765 19.6234568 33.3529412 19.6234568 31.6588235 19.6234568 30.3882353 20.9876543 30.3882353 22.5617284 30.3882353 24.2407407 31.7647059 25.5 33.3529412 25.5 34.9411765 25.5 36.3176471 24.1358025 36.3176471 22.5617284M27.2117647 50.6851852C27.2117647 49.0061728 25.8352941 47.7469136 24.2470588 47.7469136 22.5529412 47.7469136 21.2823529 49.1111111 21.2823529 50.6851852 21.2823529 52.3641975 22.6588235 53.6234568 24.2470588 53.6234568 25.8352941 53.6234568 27.2117647 52.3641975 27.2117647 50.6851852M94.4470588 62.6481481C94.4470588 60.9691358 93.0705882 59.7098765 91.4823529 59.7098765 89.7882353 59.7098765 88.5176471 61.0740741 88.5176471 62.6481481 88.5176471 64.3271605 89.8941176 65.5864198 91.4823529 65.5864198 93.0705882 65.5864198 94.4470588 64.3271605 94.4470588 62.6481481"/>
  </g>
</svg>
