<?xml version="1.0" encoding="UTF-8"?>
<svg width="279px" height="46px" viewBox="0 0 279 46" version="1.1" xmlns="http://www.w3.org/2000/svg" xmlns:xlink="http://www.w3.org/1999/xlink">
    <title>berlin-logo-header</title>
    <g id="berlin-logo-header" stroke="none" stroke-width="1" fill="none" fill-rule="evenodd">
        <g id="KombiLogo_B_RBm_Skzl_Sen_WiEnBe_Logo_DE_V_PW_4C-(1)" transform="translate(148.811000, 9.376500)">
            <path d="M8.32283333,13.9295 C9.4475,13.2105 10.1223333,12.0866667 10.1223333,10.6256667 C10.1223333,8.22116667 8.45766667,6.378 5.3985,6.378 L0.269666667,6.378 C0.1125,6.378 0,6.49016667 0,6.64783333 L0,21.8403333 C0,21.9975 0.1125,22.1103333 0.269666667,22.1103333 L5.60116667,22.1103333 C8.75,22.1103333 10.4145,20.1996667 10.4145,17.6828333 C10.4145,16.042 9.62733333,14.806 8.32283333,14.1091667 C8.23266667,14.0416667 8.23266667,13.9743333 8.32283333,13.9295 L8.32283333,13.9295 Z M5.03883333,8.985 C6.45583333,8.985 7.24283333,9.74916667 7.24283333,10.9176667 C7.24283333,12.0866667 6.45583333,12.8731667 5.03883333,12.8731667 L2.879,12.8731667 C2.78933333,12.8731667 2.74433333,12.8283333 2.74433333,12.7381667 L2.74433333,9.11983333 C2.74433333,9.03016667 2.78933333,8.985 2.879,8.985 L5.03883333,8.985 Z M5.2635,19.5028333 L2.879,19.5028333 C2.78933333,19.5028333 2.74433333,19.4358333 2.74433333,19.3683333 L2.74433333,15.5923333 C2.74433333,15.5028333 2.78933333,15.4575 2.879,15.4575 L5.2635,15.4575 C6.72583333,15.4575 7.53566667,16.2891667 7.53566667,17.4803333 C7.53566667,18.6938333 6.72583333,19.5028333 5.2635,19.5028333 L5.2635,19.5028333 Z M22.8005,8.7155 L22.8005,6.64783333 C22.8005,6.49016667 22.688,6.378 22.5303333,6.378 L14.3426667,6.378 C14.185,6.378 14.0726667,6.49016667 14.0726667,6.64783333 L14.0726667,21.8403333 C14.0726667,21.9975 14.185,22.1103333 14.3426667,22.1103333 L22.5303333,22.1103333 C22.688,22.1103333 22.8005,21.9975 22.8005,21.8403333 L22.8005,19.7726667 C22.8005,19.6155 22.688,19.5028333 22.5303333,19.5028333 L16.952,19.5028333 C16.8618333,19.5028333 16.817,19.4358333 16.817,19.3683333 L16.817,15.5923333 C16.817,15.5028333 16.8845,15.4575 16.952,15.4575 L22.5303333,15.4575 C22.688,15.4575 22.8005,15.3451667 22.8005,15.188 L22.8005,13.143 C22.8005,12.9855 22.688,12.8731667 22.5303333,12.8731667 L16.952,12.8731667 C16.8618333,12.8731667 16.817,12.8283333 16.817,12.7381667 L16.817,9.11983333 C16.817,9.03016667 16.8845,8.985 16.952,8.985 L22.5303333,8.985 C22.688,8.985 22.8005,8.87266667 22.8005,8.7155 L22.8005,8.7155 Z M35.0103333,22.1103333 L37.8443333,22.1103333 C38.0695,22.1103333 38.1365,21.9526667 38.002,21.773 L34.6278333,17.2105 C34.5825,17.143 34.5825,17.0535 34.6726667,17.0086667 C36.6746667,16.1995 38.002,14.4238333 38.002,11.9518333 C38.002,8.44566667 35.3473333,6.378 31.9731667,6.378 L27.1596667,6.378 C27.002,6.378 26.8896667,6.49016667 26.8896667,6.64783333 L26.8896667,21.8403333 C26.8896667,21.9975 27.002,22.1103333 27.1596667,22.1103333 L29.3865,22.1103333 C29.5438333,22.1103333 29.6566667,21.9975 29.6566667,21.8403333 L29.6566667,17.6601667 C29.6566667,17.5705 29.7236667,17.5251667 29.7911667,17.5251667 L31.501,17.5251667 C31.5685,17.5251667 31.6361667,17.5705 31.6808333,17.6153333 L34.6953333,21.93 C34.7628333,22.0428333 34.8751667,22.1103333 35.0103333,22.1103333 L35.0103333,22.1103333 Z M29.7911667,8.985 L31.8385,8.985 C33.6603333,8.985 35.1225,9.9515 35.1225,11.9518333 C35.1225,13.952 33.6603333,14.9183333 31.816,14.9183333 L29.7911667,14.9183333 C29.7015,14.9183333 29.6566667,14.8508333 29.6566667,14.7833333 L29.6566667,9.11983333 C29.6566667,9.03016667 29.7015,8.985 29.7911667,8.985 L29.7911667,8.985 Z M44.3403333,19.3683333 L44.3403333,6.64783333 C44.3403333,6.49016667 44.2278333,6.378 44.0706667,6.378 L41.8435,6.378 C41.6861667,6.378 41.5738333,6.49016667 41.5738333,6.64783333 L41.5738333,21.8403333 C41.5738333,21.9975 41.6861667,22.1103333 41.8435,22.1103333 L49.514,22.1103333 C49.6716667,22.1103333 49.784,21.9975 49.784,21.8403333 L49.784,19.7726667 C49.784,19.6155 49.6716667,19.5028333 49.514,19.5028333 L44.4753333,19.5028333 C44.3856667,19.5028333 44.3403333,19.4358333 44.3403333,19.3683333 L44.3403333,19.3683333 Z M53.2208333,22.1103333 L55.4481667,22.1103333 C55.6053333,22.1103333 55.7176667,21.9975 55.7176667,21.8403333 L55.7176667,6.64783333 C55.7176667,6.49016667 55.6053333,6.378 55.4481667,6.378 L53.2208333,6.378 C53.0635,6.378 52.9511667,6.49016667 52.9511667,6.64783333 L52.9511667,21.8403333 C52.9511667,21.9975 53.0635,22.1103333 53.2208333,22.1103333 L53.2208333,22.1103333 Z M69.114,6.64783333 L69.114,17.0535 C69.114,17.1883333 69.0238333,17.2331667 68.9561667,17.0981667 L63.0181667,6.55766667 C62.9505,6.44533333 62.8155,6.378 62.6805,6.378 L60.1386667,6.378 C59.981,6.378 59.8686667,6.49016667 59.8686667,6.64783333 L59.8686667,21.8403333 C59.8686667,21.9975 59.981,22.1103333 60.1386667,22.1103333 L62.343,22.1103333 C62.5005,22.1103333 62.613,21.9975 62.613,21.8403333 L62.613,11.4575 C62.613,11.3225 62.7031667,11.2776667 62.7706667,11.4121667 L68.7088333,21.93 C68.7763333,22.0428333 68.9113333,22.1103333 69.0463333,22.1103333 L71.5881667,22.1103333 C71.746,22.1103333 71.8583333,21.9975 71.8583333,21.8403333 L71.8583333,6.64783333 C71.8583333,6.49016667 71.746,6.378 71.5881667,6.378 L69.3836667,6.378 C69.2263333,6.378 69.114,6.49016667 69.114,6.64783333 L69.114,6.64783333 Z" id="Fill-5" fill="#D82333"></path>
            <path d="M113.240667,27.672 C113.240667,27.672 112.414833,22.1941667 112.024667,19.8846667 C112.134833,19.862 112.195167,19.8488333 112.195167,19.8488333 C112.557,19.7861667 112.693,19.372 112.531667,19.0935 C111.596833,17.4841667 111.2625,15.479 111.2625,13.486 C111.2625,12.2576667 111.467667,11.077 111.846833,9.97766667 C111.868333,9.9145 111.891333,9.852 111.914333,9.78966667 C111.927667,9.75133333 111.955167,9.66666667 111.960333,9.65333333 C112.212333,9.105 112.666167,7.91516667 112.8005,6.58233333 C112.909667,5.50333333 112.772833,4.60366667 112.583167,3.7605 C112.4935,3.35233333 112.263667,2.681 112.117167,2.36966667 C112.0925,2.32416667 112.067,2.27983333 112.041333,2.236 C112.378333,1.897 112.443833,1.35616667 112.184833,0.906833333 C111.879167,0.379833333 111.252167,0.171166667 110.784333,0.441333333 C110.735167,0.469666667 110.619167,0.551 110.567833,0.5885 C110.482333,0.525833333 110.4325,0.494333333 110.4325,0.494333333 C110.429833,0.492666667 110.300667,0.407833333 110.187167,0.3485 C110.186833,0.348166667 110.1445,0.326666667 110.143833,0.326 C109.663167,0.113 109.142,0 108.581833,0 C108.307833,0 108.041,0.0283333333 107.7825,0.082 C107.2235,0.198333333 106.708833,0.434166667 106.265833,0.7625 C106.035,0.836666667 105.785833,0.8535 105.785833,0.8535 L105.152,0.884 C104.854,0.8965 104.5135,0.881833333 104.5135,0.881833333 C104.365,0.881833333 104.244333,1.00283333 104.244333,1.15166667 C104.244333,1.165 104.342,2.036 104.342333,2.03883333 C104.366,2.25683333 104.457833,2.46266667 104.640333,2.58083333 L104.661667,2.59583333 C104.72,2.63483333 104.7495,2.66616667 104.762,2.69933333 C104.831667,2.889 104.973167,3.0785 105.069,3.13616667 C105.1125,3.163 105.18,3.14966667 105.1925,3.10033333 C105.313167,2.626 105.5965,3.138 106.135167,2.84583333 C106.274167,2.77066667 106.347667,3.10683333 106.2895,3.25366667 L106.239667,3.38066667 C106.128333,3.6635 105.872,3.8665 105.5695,3.91016667 C105.330833,3.94483333 105.193667,3.96916667 105.197,4.00216667 C105.225667,4.271 105.193667,4.50183333 105.467,4.66333333 C105.547,4.70616667 105.586333,4.71633333 105.586333,4.71633333 C106.0045,4.82616667 107.2255,5.29416667 105.673167,7.12566667 C105.673167,7.12566667 105.525667,7.2905 105.412333,7.454 C105.3795,7.50083333 105.351333,7.55066667 105.3265,7.60216667 L105.294167,7.66816667 L100.628167,5.92183333 C100.487333,5.86733333 100.306333,5.71383333 100.220167,5.59033333 L99.761,4.8005 C99.4751667,4.40566667 99.2263333,4.25566667 98.7305,4.21516667 C98.3726667,4.18583333 98.0811667,4.213 98.0811667,4.213 C97.9423333,4.22016667 97.8621667,4.25283333 97.8326667,4.33366667 C97.8005,4.42133333 97.7975,4.64233333 97.9336667,4.91833333 L98.3343333,5.65366667 C98.3696667,5.70583333 98.8743333,6.835 98.8743333,6.835 C98.9246667,6.97433333 99.0115,7.09716667 99.125,7.1915 C99.1355,7.20016667 103.915667,10.8121667 103.915667,10.8121667 L98.8671667,13.3306667 C98.7218333,13.4095 98.551,13.4273333 98.3926667,13.3793333 C98.2068333,13.3231667 97.9421667,13.2426667 97.9401667,13.2423333 C97.1143333,12.8741667 96.4923333,13.1301667 96.128,13.4355 C96.1246667,13.4383333 95.9853333,13.5708333 95.9853333,13.5708333 C95.8478333,13.708 95.8991667,13.8943333 96.0546667,13.971 C96.0546667,13.971 96.8515,14.4393333 97.027,14.5593333 L98.2676667,15.294 C98.4601667,15.4056667 98.687,15.4425 98.9053333,15.3978333 L103.8065,14.4093333 C103.925,16.2856667 104.398,17.8455 104.398,17.8455 C103.513833,18.6946667 102.296333,20.3178333 101.896333,22.5435 C101.658667,23.8668333 101.736167,25.066 102.097,26.4758333 C101.412667,26.5135 100.752,26.6146667 100.203333,26.9961667 C99.6811667,27.359 99.5741667,28.0056667 99.571,28.3285 L103.398333,28.3371667 L103.722167,28.3353333 C104.124833,28.33 104.229,27.9308333 104.229333,27.9298333 C104.2685,27.8088333 104.281667,27.6505 104.3,27.5326667 C104.422,26.767 104.518833,25.9718333 105.199333,24.5985 C105.7495,23.489 106.723333,22.4901667 106.723667,22.4901667 C106.725833,22.4933333 108.334,24.8745 111.053,26.5076667 C110.532,26.5406667 109.858333,26.7128333 109.458333,26.9351667 C108.824833,27.2871667 108.650333,28.0106667 108.665,28.3465 L112.629833,28.3465 C112.9025,28.3465 113.1305,28.1703333 113.212333,27.9301667 C113.2205,27.9053333 113.227333,27.8796667 113.232833,27.8535 C113.236333,27.8348333 113.239333,27.8158333 113.241,27.797 C113.245,27.7561667 113.245333,27.7141667 113.240667,27.672" id="Fill-6" fill="#000203"></path>
        </g>
        <path d="M279,0 L279,46 L0,46 L0,0 L279,0 Z M278,1 L234,1 L234,45 L278,45 L278,1 Z M233,1 L138,1 L138,45 L233,45 L233,1 Z M137,1 L1,1 L1,45 L137,45 L137,1 Z" id="Shape" fill="#1A1919" fill-rule="nonzero"></path>
        <g id="Group-3" transform="translate(13.363496, 15.897031)" fill="#1A1919">
            <path d="M0.0226219801,11.3271339 C-0.0359622749,11.1904962 0.0226219801,11.0928051 0.159264481,11.0342229 L1.99517494,10.2921278 C2.13181744,10.2333833 2.24898595,10.2921278 2.28809622,10.448401 C2.62012776,11.5030427 3.49889158,12.0497557 4.6316287,12.0497557 C6.0378131,12.0497557 6.77993443,11.3076606 6.77993443,10.2530189 C6.77993443,9.13979504 6.09639736,8.55397315 4.88560199,8.31948212 L3.90898137,8.14373556 C1.76083792,7.75329582 0.315543255,6.28857884 0.315543255,4.08160443 C0.315543255,1.91390119 2.07323319,0.0196355811 4.74895949,0.0196355811 C6.77993443,0.0196355811 8.30328734,1.13269716 9.00646068,2.79279629 C9.06504494,2.92959625 9.00646068,3.02712504 8.86981818,3.08570723 L7.03390772,3.80832907 C6.89710294,3.86691126 6.7995707,3.82780237 6.74082416,3.67169139 C6.38931863,2.8317429 5.64719731,2.2850299 4.72932322,2.2850299 C3.53800185,2.2850299 2.83499079,3.02712504 2.83499079,4.00371122 C2.83499079,4.84349743 3.40119706,5.48773923 4.45587594,5.70259468 L5.43233428,5.87834124 C7.42452352,6.24946995 9.29938196,7.53844037 9.29938196,10.07711 C9.29938196,12.4208844 7.56116602,14.4126788 4.61215471,14.4126788 C2.48332297,14.4126788 0.745269314,13.241035 0.0226219801,11.3271339" id="Fill-13"></path>
            <path d="M24.2919205,0.58598416 L24.2919205,13.8268569 C24.2919205,13.9441836 24.1942259,14.0417124 24.0770574,14.0417124 L22.1239785,14.0417124 C21.987336,14.0417124 21.8896414,13.9441836 21.8896414,13.8268569 L21.8896414,4.62847971 C21.8896414,4.49184203 21.8115832,4.43325984 21.7333627,4.5895331 L18.4523198,9.82330799 C18.2765671,10.0969079 18.04223,10.0969079 17.8664773,9.82330799 L14.6049084,4.5895331 C14.5072139,4.43325984 14.4291556,4.49184203 14.4291556,4.62847971 L14.4291556,13.8268569 C14.4291556,13.9441836 14.3510974,14.0417124 14.2142926,14.0417124 L12.2613759,14.0417124 C12.1245711,14.0417124 12.0465129,13.9441836 12.0465129,13.8268569 L12.0465129,0.58598416 C12.0465129,0.468819784 12.1245711,0.371128711 12.2613759,0.371128711 L14.6049084,0.371128711 C14.7220769,0.371128711 14.8197714,0.429710899 14.8783557,0.527401972 L18.04223,5.91745013 C18.1204506,6.07372339 18.1985088,6.07372339 18.2765671,5.91745013 L21.4404414,0.527401972 C21.4990256,0.410075318 21.6163564,0.371128711 21.7138887,0.371128711 L24.0770574,0.371128711 C24.1942259,0.371128711 24.2919205,0.468819784 24.2919205,0.58598416" id="Fill-14"></path>
            <path d="M30.3728363,9.02263066 L34.1225532,9.02263066 C34.1811374,9.02263066 34.2202477,8.98352178 34.2006114,8.88599298 L32.4625578,2.77332299 C32.4429215,2.69510522 32.4234475,2.65599633 32.345227,2.65599633 L32.1305262,2.65599633 C32.071942,2.65599633 32.0328317,2.69510522 32.0131954,2.77332299 L30.2751418,8.88599298 C30.2555055,8.98352178 30.2946158,9.02263066 30.3728363,9.02263066 Z M34.298306,0.664039652 L38.0676591,13.8073836 C38.1067694,13.9636569 38.0285488,14.0417124 37.8919063,14.0417124 L35.8802431,14.0417124 C35.7436006,14.0417124 35.6459061,13.9831302 35.6069581,13.8659658 L34.9232588,11.4442982 C34.8841485,11.3076606 34.8257265,11.2685517 34.7278697,11.2685517 L29.7478835,11.2685517 C29.669663,11.2685517 29.5916047,11.3076606 29.5524944,11.4442982 L28.8689574,13.8659658 C28.8298471,13.9831302 28.7321526,14.0417124 28.6151464,14.0417124 L26.5838469,14.0417124 C26.4277304,14.0417124 26.3691461,13.9636569 26.4080941,13.8073836 L30.1970835,0.664039652 C30.2555055,0.429710899 30.3532,0.371128711 30.5485891,0.371128711 L33.9468004,0.371128711 C34.1225532,0.371128711 34.2397217,0.429710899 34.298306,0.664039652 L34.298306,0.664039652 Z" id="Fill-15"></path>
            <path d="M43.0059386,7.79224243 L44.7832648,7.79224243 C46.3652019,7.79224243 47.6540555,6.95261849 47.6540555,5.21446387 C47.6540555,3.47630924 46.3846759,2.63652303 44.7832648,2.63652303 L43.0059386,2.63652303 C42.9278803,2.63652303 42.88877,2.67563191 42.88877,2.75384968 L42.88877,7.67524033 C42.88877,7.75329582 42.9278803,7.79224243 43.0059386,7.79224243 Z M40.5061273,13.8073836 L40.5061273,0.605457464 C40.5061273,0.468819784 40.6038218,0.371128711 40.7404643,0.371128711 L44.9199073,0.371128711 C47.8494446,0.371128711 50.1345551,2.16786552 50.1345551,5.21446387 C50.1345551,7.36269381 49.001818,8.86651968 47.30255,9.54987035 C47.1659075,9.60861482 47.1462712,9.70614362 47.2244918,9.80383469 L50.1540291,13.7486392 C50.2711976,13.9049124 50.2126133,14.0417124 50.0172243,14.0417124 L47.6736918,14.0417124 C47.4393548,14.0417124 47.3416603,14.0027658 47.2050178,13.7879103 L44.6855702,10.2530189 C44.5684017,10.0969079 44.4903435,10.0576367 44.3144284,10.0576367 L43.0059386,10.0576367 C42.9473543,10.0576367 42.88877,10.0969079 42.88877,10.1749634 L42.88877,13.8073836 C42.88877,13.9441836 42.7912378,14.0417124 42.654433,14.0417124 L40.7404643,14.0417124 C40.6038218,14.0417124 40.5061273,13.9441836 40.5061273,13.8073836 L40.5061273,13.8073836 Z" id="Fill-16"></path>
            <path d="M61.00802,0.605457464 L61.00802,2.40219427 C61.00802,2.53883195 60.9104878,2.63652303 60.773683,2.63652303 L57.6294449,2.63652303 C57.5512244,2.63652303 57.5121141,2.67563191 57.5121141,2.75384968 L57.5121141,13.8073836 C57.5121141,13.9441836 57.4145819,14.0417124 57.2777771,14.0417124 L55.3443344,14.0417124 C55.2076919,14.0417124 55.1099974,13.9441836 55.1099974,13.8073836 L55.1099974,2.75384968 C55.1099974,2.69510522 55.0708871,2.63652303 54.9928289,2.63652303 L51.8484285,2.63652303 C51.711786,2.63652303 51.6140915,2.53883195 51.6140915,2.40219427 L51.6140915,0.605457464 C51.6140915,0.468819784 51.711786,0.371128711 51.8484285,0.371128711 L60.773683,0.371128711 C60.9104878,0.371128711 61.00802,0.468819784 61.00802,0.605457464" id="Fill-17"></path>
            <path d="M67.7254108,7.20642055 C67.7254108,2.90979839 70.7330063,-1.95399252e-14 74.6781123,-1.95399252e-14 C77.295092,-1.95399252e-14 79.5410923,1.26949712 80.6541931,3.30056268 C80.7127774,3.43720036 80.6933034,3.53489143 80.5761349,3.6131092 L78.9550875,4.72617078 C78.8379189,4.80422627 78.7012764,4.78475297 78.6230559,4.64795301 C77.8418243,3.1833983 76.4358022,2.38255869 74.6781123,2.38255869 C72.002386,2.38255869 70.225222,4.37467765 70.225222,7.20642055 C70.225222,10.0381634 72.002386,12.0302824 74.6781123,12.0302824 C76.4358022,12.0302824 77.8418243,11.2294428 78.6230559,9.76488808 C78.7012764,9.62808812 78.8379189,9.60861482 78.9550875,9.68667031 L80.5957712,10.7998942 C80.7127774,10.8779497 80.7324137,10.9756407 80.6738294,11.0928051 C79.5605663,13.1628173 77.314566,14.4126788 74.6781123,14.4126788 C70.7330063,14.4126788 67.7254108,11.5030427 67.7254108,7.20642055" id="Fill-18"></path>
            <path d="M83.1220346,13.8073836 L83.1220346,0.605457464 C83.1220346,0.468819784 83.2197291,0.371128711 83.3563716,0.371128711 L85.2898143,0.371128711 C85.4266191,0.371128711 85.5243136,0.468819784 85.5243136,0.605457464 L85.5243136,13.8073836 C85.5243136,13.9441836 85.4266191,14.0417124 85.2898143,14.0417124 L83.3563716,14.0417124 C83.2197291,14.0417124 83.1220346,13.9441836 83.1220346,13.8073836" id="Fill-19"></path>
            <path d="M97.1264303,0.605457464 L97.1264303,2.40219427 C97.1264303,2.53883195 97.0288981,2.63652303 96.8920933,2.63652303 L93.7478553,2.63652303 C93.6696347,2.63652303 93.6305245,2.67563191 93.6305245,2.75384968 L93.6305245,13.8073836 C93.6305245,13.9441836 93.5329922,14.0417124 93.3961874,14.0417124 L91.4627448,14.0417124 C91.3261023,14.0417124 91.2284077,13.9441836 91.2284077,13.8073836 L91.2284077,2.75384968 C91.2284077,2.69510522 91.1892975,2.63652303 91.1112392,2.63652303 L87.9668389,2.63652303 C87.8301964,2.63652303 87.7325019,2.53883195 87.7325019,2.40219427 L87.7325019,0.605457464 C87.7325019,0.468819784 87.8301964,0.371128711 87.9668389,0.371128711 L96.8920933,0.371128711 C97.0288981,0.371128711 97.1264303,0.468819784 97.1264303,0.605457464" id="Fill-20"></path>
            <path d="M108.22271,0.644566349 L104.765915,9.43286826 C104.707168,9.54987035 104.687694,9.66719701 104.687694,9.80383469 L104.687694,13.8073836 C104.687694,13.9441836 104.590162,14.0417124 104.453357,14.0417124 L102.539388,14.0417124 C102.402746,14.0417124 102.305214,13.9441836 102.305214,13.8073836 L102.285415,9.78436139 C102.285415,9.62808812 102.265941,9.53039705 102.207357,9.39375937 L98.7700351,0.644566349 C98.7114509,0.468819784 98.7896714,0.371128711 98.9654242,0.371128711 L100.996561,0.371128711 C101.133204,0.371128711 101.230898,0.429710899 101.270009,0.546875276 L103.418314,6.22983437 C103.457262,6.34716103 103.535483,6.34716103 103.574593,6.22983437 L105.722899,0.546875276 C105.761847,0.429710899 105.859541,0.371128711 105.996346,0.371128711 L108.027321,0.371128711 C108.203074,0.371128711 108.281294,0.468819784 108.22271,0.644566349" id="Fill-21"></path>
        </g>
    </g>
</svg>