<?xml version="1.0" encoding="utf-8"?>
<!-- Generator: Adobe Illustrator 21.0.0, SVG Export Plug-In . SVG Version: 6.00 Build 0)  -->
<svg version="1.1" id="Layer_1" xmlns="http://www.w3.org/2000/svg" xmlns:xlink="http://www.w3.org/1999/xlink" x="0px" y="0px"
	 width="265px" height="87.6px" viewBox="0 0 265 87.6" style="enable-background:new 0 0 265 87.6;" xml:space="preserve">
<style type="text/css">
	.st0{fill:#F7323F;}
	.st1{fill:#FFFFFF;}
	.st2{fill:#1D1D1B;}
	.st3{fill-rule:evenodd;clip-rule:evenodd;fill:#FFFFFF;}
	.st4{fill:#F2F2F2;}
	.st5{fill-rule:evenodd;clip-rule:evenodd;fill:#F7323F;}
	.st6{fill-rule:evenodd;clip-rule:evenodd;}
</style>
<g>
	<g>
		<g>
			<path class="st0" d="M123.8,33.5c0,1.4-0.2,2.5-0.5,3.3c-0.4,0.8-1.1,1.4-2.2,1.9c-1.1,0.5-2.6,0.7-4.5,0.7
				c-2.4,0-4.5-0.4-6.4-1.3l0.7-3.4c2,0.6,3.9,1,5.7,1c1.1,0,1.9-0.1,2.2-0.4c0.3-0.3,0.5-0.8,0.5-1.7c0-0.5,0-0.9,0-1.1
				c0-0.2-0.2-0.4-0.4-0.7c-0.2-0.2-0.6-0.4-1-0.5c-0.4-0.1-1-0.3-1.9-0.5c-2.4-0.5-3.9-1.1-4.5-1.9c-0.6-0.8-1-2.2-1-4.4
				c0-2,0.5-3.5,1.4-4.3c0.9-0.8,2.8-1.2,5.4-1.2c2,0,4,0.2,6,0.7l-0.4,3.7c-2.2-0.4-4-0.6-5.5-0.6c-1,0-1.6,0.1-2,0.4
				s-0.5,0.7-0.5,1.5c0,0.9,0.1,1.5,0.4,1.8c0.3,0.2,1.2,0.5,2.8,0.9c0.9,0.2,1.7,0.4,2.3,0.6c0.6,0.2,1.1,0.4,1.6,0.7
				c0.4,0.3,0.8,0.5,1,0.8c0.2,0.2,0.4,0.6,0.5,1.1c0.1,0.5,0.2,0.9,0.2,1.3C123.8,32.1,123.8,32.7,123.8,33.5z"/>
			<path class="st0" d="M134.7,36.5l-3.4-8.4l-0.3,11h-4.3l0.8-19.8h4.5l4.7,12.6l4.7-12.6h4.5l0.8,19.8h-4.3l-0.3-11l-3.4,8.4
				H134.7z"/>
			<path class="st0" d="M160.7,19.2l6.1,19.8h-4.6l-1.1-3.9h-6.6l-1.1,3.9h-4.6l6-19.8H160.7z M157.8,23.2l-2.3,8.3h4.5L157.8,23.2z
				"/>
			<path class="st0" d="M180.4,39l-4.4-6.1h-2.6V39H169V19.2h8.2c2.4,0,4,0.5,5.1,1.4c1,0.9,1.5,2.3,1.5,4.2v2.4c0,2.5-1,4.1-2.9,5
				l4.8,6.8H180.4z M179.4,26.8v-1.6c0-0.8-0.2-1.3-0.5-1.6c-0.3-0.3-1-0.5-1.9-0.5h-3.5V29h3.5c0.9,0,1.5-0.2,1.9-0.5
				C179.2,28.2,179.4,27.6,179.4,26.8z"/>
			<path class="st0" d="M200.9,23.2h-5.3V39h-4.5V23.2h-5.3v-3.9h15.1V23.2z"/>
			<path class="st0" d="M213.4,25.7v6.8c0,0.9,0.2,1.6,0.6,2.1c0.4,0.4,1.1,0.7,2.2,0.7c1.6,0,3.3-0.2,5.1-0.5l0.6,3.9
				c-2,0.4-3.9,0.6-5.7,0.6c-2.4,0-4.2-0.5-5.4-1.6c-1.2-1.1-1.8-2.6-1.8-4.4V25c0-1.9,0.6-3.4,1.8-4.4s3-1.6,5.4-1.6
				c1.9,0,3.8,0.2,5.7,0.6l-0.6,3.9c-1.8-0.3-3.5-0.5-5.1-0.5c-1,0-1.8,0.2-2.2,0.7C213.6,24.1,213.4,24.8,213.4,25.7z"/>
			<path class="st0" d="M229.5,39H225V19.2h4.5V39z"/>
			<path class="st0" d="M247,23.2h-5.3V39h-4.5V23.2h-5.3v-3.9H247V23.2z"/>
			<path class="st0" d="M265,19.2l-6.1,14.1V39h-4.5v-5.7l-6.1-14.1h4.7l3.7,9.2l3.7-9.2H265z"/>
			<path d="M124.9,62.9c0,1.4-0.5,2.6-1.4,3.4s-2.4,1.3-4.3,1.3h-8.4V47.8h7.8c3.8,0,5.6,1.4,5.6,4.3v2c0,1.4-0.7,2.5-2.2,3.1
				c0.8,0.2,1.5,0.6,2.1,1.3c0.6,0.7,0.8,1.5,0.8,2.3V62.9z M119.8,54.5v-1.7c0-0.9-0.6-1.4-1.8-1.4h-2.8v4.5h2.8
				c0.6,0,1-0.1,1.3-0.4S119.8,55,119.8,54.5z M120.5,62.3v-1.2c0-1.1-0.6-1.7-1.9-1.7h-3.4V64h2.8c0.8,0,1.4-0.1,1.8-0.4
				C120.3,63.4,120.5,62.9,120.5,62.3z"/>
			<path d="M140.2,67.6h-12.4V47.8h12.4v3.9h-8v3.6h7.4v3.9h-7.4v4.3h8V67.6z"/>
			<path d="M155,67.6l-4.4-6.1h-2.6v6.1h-4.5V47.8h8.2c2.4,0,4,0.5,5.1,1.4c1,0.9,1.5,2.3,1.5,4.2v2.4c0,2.5-1,4.1-2.9,5l4.8,6.8
				H155z M154,55.4v-1.6c0-0.8-0.2-1.3-0.5-1.6c-0.3-0.3-1-0.5-1.9-0.5h-3.5v5.8h3.5c0.9,0,1.5-0.2,1.9-0.5
				C153.8,56.8,154,56.2,154,55.4z"/>
			<path d="M175,67.6h-12.3V47.8h4.5v15.8h7.8V67.6z"/>
			<path d="M182.1,67.6h-4.5V47.8h4.5V67.6z"/>
			<path d="M196.8,67.6l-6.5-13v13h-4.2V47.8h5.5l6.5,13.6V47.8h4.2v19.8H196.8z"/>
		</g>
	</g>
	<g>
		<g>
			<path d="M55,32.7c0-1.6-1.3-2.8-2.8-2.8c-1.6,0-2.8,1.3-2.8,2.8c0,1.6,1.3,2.8,2.8,2.8C53.8,35.5,55,34.2,55,32.7"/>
			<path d="M62.3,36.9c0-1.6-1.3-2.8-2.8-2.8c-1.6,0-2.8,1.3-2.8,2.8c0,1.6,1.3,2.8,2.8,2.8C61,39.7,62.3,38.4,62.3,36.9"/>
			<path d="M62.3,45.2c0-1.6-1.3-2.8-2.8-2.8c-1.6,0-2.8,1.3-2.8,2.8c0,1.6,1.3,2.8,2.8,2.8C61,48.1,62.3,46.8,62.3,45.2"/>
			<path d="M55,49.4c0-1.6-1.3-2.8-2.8-2.8c-1.6,0-2.8,1.3-2.8,2.8c0,1.6,1.3,2.8,2.8,2.8C53.8,52.3,55,51,55,49.4"/>
			<path d="M47.8,45.2c0-1.6-1.3-2.8-2.8-2.8c-1.6,0-2.8,1.3-2.8,2.8c0,1.6,1.3,2.8,2.8,2.8C46.5,48.1,47.8,46.8,47.8,45.2"/>
			<path d="M47.8,36.9c0-1.6-1.3-2.8-2.8-2.8c-1.6,0-2.8,1.3-2.8,2.8c0,1.6,1.3,2.8,2.8,2.8C46.5,39.7,47.8,38.4,47.8,36.9"/>
			<path d="M55,24.3c0-1.6-1.3-2.8-2.8-2.8c-1.6,0-2.8,1.3-2.8,2.8c0,1.6,1.3,2.8,2.8,2.8C53.8,27.1,55,25.9,55,24.3"/>
			<path d="M63.4,26.5c0-1.6-1.3-2.8-2.8-2.8c-1.6,0-2.8,1.3-2.8,2.8c0,1.6,1.3,2.8,2.8,2.8C62.1,29.4,63.4,28.1,63.4,26.5"/>
			<path d="M69.5,32.7c0-1.6-1.3-2.8-2.8-2.8s-2.8,1.3-2.8,2.8c0,1.6,1.3,2.8,2.8,2.8S69.5,34.2,69.5,32.7"/>
			<path d="M71.8,41.1c0-1.6-1.3-2.8-2.8-2.8c-1.6,0-2.8,1.3-2.8,2.8c0,1.6,1.3,2.8,2.8,2.8C70.5,43.9,71.8,42.6,71.8,41.1"/>
			<path d="M69.5,49.4c0-1.6-1.3-2.8-2.8-2.8s-2.8,1.3-2.8,2.8c0,1.6,1.3,2.8,2.8,2.8S69.5,51,69.5,49.4"/>
			<path d="M63.4,55.6c0-1.6-1.3-2.8-2.8-2.8c-1.6,0-2.8,1.3-2.8,2.8c0,1.6,1.3,2.8,2.8,2.8C62.1,58.4,63.4,57.1,63.4,55.6"/>
			<path d="M55,57.8c0-1.6-1.3-2.8-2.8-2.8c-1.6,0-2.8,1.3-2.8,2.8c0,1.6,1.3,2.8,2.8,2.8C53.8,60.6,55,59.4,55,57.8"/>
			<path d="M46.6,55.6c0-1.6-1.3-2.8-2.8-2.8c-1.6,0-2.8,1.3-2.8,2.8c0,1.6,1.3,2.8,2.8,2.8C45.4,58.4,46.6,57.1,46.6,55.6"/>
			<path d="M40.5,49.4c0-1.6-1.3-2.8-2.8-2.8c-1.6,0-2.8,1.3-2.8,2.8c0,1.6,1.3,2.8,2.8,2.8C39.2,52.3,40.5,51,40.5,49.4"/>
			<path d="M38.3,41.1c0-1.6-1.3-2.8-2.8-2.8c-1.6,0-2.8,1.3-2.8,2.8c0,1.6,1.3,2.8,2.8,2.8C37,43.9,38.3,42.6,38.3,41.1"/>
			<path d="M40.5,32.7c0-1.6-1.3-2.8-2.8-2.8c-1.6,0-2.8,1.3-2.8,2.8c0,1.6,1.3,2.8,2.8,2.8C39.2,35.5,40.5,34.2,40.5,32.7"/>
			<path d="M46.6,26.5c0-1.6-1.3-2.8-2.8-2.8c-1.6,0-2.8,1.3-2.8,2.8c0,1.6,1.3,2.8,2.8,2.8C45.4,29.4,46.6,28.1,46.6,26.5"/>
			<path d="M54.7,15.9c0-1.4-1.1-2.5-2.5-2.5c-1.4,0-2.5,1.1-2.5,2.5c0,1.4,1.1,2.5,2.5,2.5C53.6,18.4,54.7,17.3,54.7,15.9"/>
			<path d="M63.5,17.4c0-1.5-1.2-2.7-2.7-2.7c-1.5,0-2.7,1.2-2.7,2.7c0,1.5,1.2,2.7,2.7,2.7C62.3,20.1,63.5,18.9,63.5,17.4"/>
			<path d="M68.6,21.8c0-0.1-0.1-0.3-0.3-0.3c-0.1,0-0.3,0.1-0.3,0.3c0,0.1,0.1,0.3,0.3,0.3C68.5,22.1,68.6,21.9,68.6,21.8"/>
			<path d="M75.3,28.5c0-0.7-0.6-1.3-1.3-1.3c-0.7,0-1.3,0.6-1.3,1.3c0,0.7,0.6,1.3,1.3,1.3C74.7,29.8,75.3,29.2,75.3,28.5"/>
			<path d="M79.2,36.7c0-1.3-1-2.3-2.3-2.3s-2.3,1-2.3,2.3s1,2.3,2.3,2.3S79.2,37.9,79.2,36.7"/>
			<path d="M79.8,45.4c0-1.6-1.3-2.8-2.8-2.8c-1.6,0-2.8,1.3-2.8,2.8s1.3,2.8,2.8,2.8C78.5,48.2,79.8,47,79.8,45.4"/>
			<path d="M76.8,53.6c0-1.6-1.3-2.8-2.8-2.8s-2.8,1.3-2.8,2.8c0,1.6,1.3,2.8,2.8,2.8S76.8,55.2,76.8,53.6"/>
			<path d="M71.2,60.3c0-1.6-1.3-2.8-2.8-2.8c-1.6,0-2.8,1.3-2.8,2.8c0,1.6,1.3,2.8,2.8,2.8C69.9,63.1,71.2,61.9,71.2,60.3"/>
			<path d="M63.1,64.7c0-1.3-1-2.3-2.3-2.3c-1.3,0-2.3,1-2.3,2.3c0,1.3,1,2.3,2.3,2.3C62.1,67,63.1,65.9,63.1,64.7"/>
			<path d="M54.4,66.2c0-1.2-1-2.2-2.2-2.2C51,64,50,65,50,66.2c0,1.2,1,2.2,2.2,2.2C53.4,68.4,54.4,67.4,54.4,66.2"/>
			<path d="M46.4,64.7c0-1.6-1.3-2.8-2.8-2.8c-1.6,0-2.8,1.3-2.8,2.8c0,1.6,1.3,2.8,2.8,2.8C45.2,67.5,46.4,66.2,46.4,64.7"/>
			<path d="M38.9,60.3c0-1.6-1.3-2.8-2.8-2.8c-1.6,0-2.8,1.3-2.8,2.8c0,1.6,1.3,2.8,2.8,2.8C37.6,63.1,38.9,61.9,38.9,60.3"/>
			<path d="M33.3,53.6c0-1.6-1.3-2.8-2.8-2.8c-1.6,0-2.8,1.3-2.8,2.8c0,1.6,1.3,2.8,2.8,2.8C32,56.4,33.3,55.2,33.3,53.6"/>
			<path d="M30.3,45.4c0-1.6-1.3-2.8-2.8-2.8c-1.6,0-2.8,1.3-2.8,2.8s1.3,2.8,2.8,2.8C29,48.2,30.3,47,30.3,45.4"/>
			<path d="M30.3,36.7c0-1.6-1.3-2.8-2.8-2.8c-1.6,0-2.8,1.3-2.8,2.8c0,1.6,1.3,2.8,2.8,2.8C29,39.5,30.3,38.2,30.3,36.7"/>
			<path d="M38.9,21.8c0-1.6-1.3-2.8-2.8-2.8c-1.6,0-2.8,1.3-2.8,2.8c0,1.6,1.3,2.8,2.8,2.8C37.6,24.6,38.9,23.4,38.9,21.8"/>
			<path d="M45.3,17.4c0-0.9-0.7-1.6-1.6-1.6c-0.9,0-1.6,0.7-1.6,1.6c0,0.9,0.7,1.6,1.6,1.6C44.5,19.1,45.3,18.3,45.3,17.4"/>
			<path d="M52.2,7.5C52.2,7.5,52.2,7.5,52.2,7.5C52.2,7.5,52.2,7.5,52.2,7.5C52.2,7.6,52.2,7.6,52.2,7.5
				C52.2,7.6,52.2,7.6,52.2,7.5"/>
			<path d="M61.9,8.6c0-0.8-0.6-1.4-1.4-1.4s-1.4,0.6-1.4,1.4c0,0.8,0.6,1.4,1.4,1.4S61.9,9.4,61.9,8.6"/>
			<path d="M68.8,11.7c0-0.2-0.2-0.4-0.4-0.4S68,11.5,68,11.7c0,0.2,0.2,0.4,0.4,0.4S68.8,11.9,68.8,11.7"/>
			<path d="M84.1,30.7C84.1,30.7,84.1,30.7,84.1,30.7C84.1,30.7,84.1,30.7,84.1,30.7C84.1,30.7,84.1,30.7,84.1,30.7
				C84.1,30.7,84.1,30.7,84.1,30.7"/>
			<path d="M86.4,38.9c0-0.4-0.3-0.7-0.7-0.7c-0.4,0-0.7,0.3-0.7,0.7c0,0.4,0.3,0.7,0.7,0.7C86.1,39.7,86.4,39.4,86.4,38.9"/>
			<path d="M85.5,47.3c0-0.2-0.1-0.3-0.3-0.3c-0.2,0-0.3,0.1-0.3,0.3s0.1,0.3,0.3,0.3C85.3,47.7,85.5,47.5,85.5,47.3"/>
			<path d="M84.7,55.3c0-1.2-1-2.2-2.2-2.2s-2.2,1-2.2,2.2c0,1.2,1,2.2,2.2,2.2S84.7,56.5,84.7,55.3"/>
			<path d="M80.9,62.4c0-1.6-1.3-2.8-2.8-2.8s-2.8,1.3-2.8,2.8c0,1.6,1.3,2.8,2.8,2.8S80.9,64,80.9,62.4"/>
			<path d="M74.7,68.2c0-1.5-1.2-2.8-2.8-2.8c-1.5,0-2.8,1.2-2.8,2.8c0,1.5,1.2,2.8,2.8,2.8C73.4,70.9,74.7,69.7,74.7,68.2"/>
			<path d="M65.1,72.2c0-0.3-0.2-0.6-0.6-0.6c-0.3,0-0.6,0.2-0.6,0.6c0,0.3,0.2,0.6,0.6,0.6C64.8,72.8,65.1,72.5,65.1,72.2"/>
			<path d="M56.5,74.3C56.5,74.3,56.5,74.2,56.5,74.3c-0.2-0.1-0.2-0.1-0.2,0C56.3,74.4,56.3,74.4,56.5,74.3
				C56.5,74.4,56.5,74.4,56.5,74.3"/>
			<path d="M49.3,74.3c0-0.7-0.6-1.3-1.3-1.3c-0.7,0-1.3,0.6-1.3,1.3c0,0.7,0.6,1.3,1.3,1.3C48.7,75.6,49.3,75,49.3,74.3"/>
			<path d="M40.1,72.2c0-0.1-0.1-0.2-0.2-0.2c-0.1,0-0.2,0.1-0.2,0.2c0,0.1,0.1,0.2,0.2,0.2C40,72.4,40.1,72.3,40.1,72.2"/>
			<path d="M33.8,68.2c0-0.7-0.6-1.3-1.3-1.3c-0.7,0-1.3,0.6-1.3,1.3c0,0.7,0.6,1.3,1.3,1.3C33.2,69.4,33.8,68.9,33.8,68.2"/>
			<path d="M29,62.4c0-1.5-1.2-2.6-2.6-2.6c-1.5,0-2.6,1.2-2.6,2.6c0,1.5,1.2,2.6,2.6,2.6C27.8,65.1,29,63.9,29,62.4"/>
			<path d="M22.1,47.3c0-1.6-1.3-2.8-2.8-2.8c-1.6,0-2.8,1.3-2.8,2.8c0,1.6,1.3,2.8,2.8,2.8C20.8,50.1,22.1,48.9,22.1,47.3"/>
			<path d="M21.6,38.9c0-1.6-1.3-2.8-2.8-2.8s-2.8,1.3-2.8,2.8c0,1.6,1.3,2.8,2.8,2.8S21.6,40.5,21.6,38.9"/>
			<path d="M23.1,30.7c0-1.6-1.3-2.8-2.8-2.8c-1.6,0-2.8,1.3-2.8,2.8c0,1.6,1.3,2.8,2.8,2.8C21.9,33.5,23.1,32.3,23.1,30.7"/>
			<path d="M26,23.1c0-1.2-0.9-2.1-2.1-2.1c-1.2,0-2.1,0.9-2.1,2.1c0,1.2,0.9,2.1,2.1,2.1C25.1,25.2,26,24.2,26,23.1"/>
			<path d="M31.2,16.6c0-1.1-0.9-2-2-2c-1.1,0-2,0.9-2,2s0.9,2,2,2C30.3,18.6,31.2,17.7,31.2,16.6"/>
			<path d="M36.9,11.7c0-0.5-0.4-0.8-0.8-0.8s-0.8,0.4-0.8,0.8c0,0.5,0.4,0.8,0.8,0.8S36.9,12.1,36.9,11.7"/>
			<path d="M43.9,8.6C43.9,8.6,43.9,8.6,43.9,8.6C43.9,8.6,43.9,8.6,43.9,8.6C43.9,8.6,43.9,8.6,43.9,8.6
				C43.9,8.6,43.9,8.6,43.9,8.6"/>
			<path d="M60.6,0C60.6,0,60.6,0,60.6,0C60.6,0,60.6,0,60.6,0C60.6,0,60.6,0,60.6,0C60.6,0,60.6,0,60.6,0"/>
			<path d="M92.9,51.6c0-0.1-0.1-0.1-0.1-0.1c-0.1,0-0.1,0.1-0.1,0.1c0,0.1,0.1,0.1,0.1,0.1C92.8,51.7,92.9,51.6,92.9,51.6"/>
			<path d="M92.6,59.5c0-1.5-1.2-2.8-2.8-2.8c-1.5,0-2.8,1.2-2.8,2.8c0,1.5,1.2,2.8,2.8,2.8C91.4,62.3,92.6,61,92.6,59.5"/>
			<path d="M81.3,72.8c0-1-0.8-1.8-1.8-1.8c-1,0-1.8,0.8-1.8,1.8s0.8,1.8,1.8,1.8C80.5,74.6,81.3,73.8,81.3,72.8"/>
			<path d="M72.6,77.7C72.6,77.7,72.6,77.7,72.6,77.7C72.5,77.7,72.5,77.7,72.6,77.7C72.5,77.7,72.5,77.7,72.6,77.7
				C72.6,77.7,72.6,77.7,72.6,77.7"/>
			<path d="M24.9,72.8C24.9,72.8,24.9,72.8,24.9,72.8C24.9,72.8,24.9,72.8,24.9,72.8C24.9,72.9,24.9,72.9,24.9,72.8
				C24.9,72.9,24.9,72.9,24.9,72.8"/>
			<path d="M20.5,66.7c0-0.8-0.6-1.4-1.4-1.4c-0.8,0-1.4,0.6-1.4,1.4s0.6,1.4,1.4,1.4C19.8,68.1,20.5,67.5,20.5,66.7"/>
			<path d="M17.4,59.5c0-1.6-1.3-2.8-2.8-2.8c-1.6,0-2.8,1.3-2.8,2.8c0,1.6,1.3,2.8,2.8,2.8C16.1,62.3,17.4,61.1,17.4,59.5"/>
			<path d="M13.6,51.6c0-1.1-0.9-1.9-1.9-1.9c-1.1,0-1.9,0.9-1.9,1.9c0,1.1,0.9,1.9,1.9,1.9C12.7,53.5,13.6,52.6,13.6,51.6"/>
			<path d="M11,43.2c0-0.3-0.3-0.6-0.6-0.6s-0.6,0.3-0.6,0.6c0,0.3,0.3,0.6,0.6,0.6S11,43.5,11,43.2"/>
			<path d="M12.1,34.7c0-0.7-0.6-1.3-1.4-1.3S9.4,34,9.4,34.7c0,0.7,0.6,1.3,1.4,1.3S12.1,35.5,12.1,34.7"/>
			<path d="M14.2,26.5c0-0.7-0.6-1.3-1.3-1.3c-0.7,0-1.3,0.6-1.3,1.3c0,0.7,0.6,1.3,1.3,1.3C13.6,27.8,14.2,27.2,14.2,26.5"/>
			<path d="M16.7,18.9C16.7,18.9,16.7,18.9,16.7,18.9C16.6,18.9,16.6,18.9,16.7,18.9C16.6,18.9,16.6,18.9,16.7,18.9
				C16.7,18.9,16.7,18.9,16.7,18.9"/>
			<path d="M21.9,12.2C21.9,12.2,21.9,12.2,21.9,12.2C21.8,12.2,21.8,12.2,21.9,12.2C21.8,12.2,21.8,12.2,21.9,12.2
				C21.9,12.2,21.9,12.2,21.9,12.2"/>
			<path d="M28.3,6.7C28.3,6.7,28.3,6.7,28.3,6.7C28.3,6.7,28.3,6.7,28.3,6.7C28.3,6.7,28.3,6.7,28.3,6.7
				C28.3,6.7,28.3,6.7,28.3,6.7"/>
			<path d="M100.4,55.8c0-0.1-0.1-0.2-0.2-0.2c-0.1,0-0.2,0.1-0.2,0.2c0,0.1,0.1,0.2,0.2,0.2C100.4,55.9,100.4,55.9,100.4,55.8"/>
			<path d="M99.2,63.7c0-1.2-0.9-2.1-2.1-2.1S95,62.5,95,63.7c0,1.2,0.9,2.1,2.1,2.1S99.2,64.8,99.2,63.7"/>
			<path d="M94.8,71c0-1.2-1-2.2-2.2-2.2s-2.2,1-2.2,2.2s1,2.2,2.2,2.2S94.8,72.2,94.8,71"/>
			<path d="M88.8,77.4c0-1-0.8-1.8-1.8-1.8c-1,0-1.8,0.8-1.8,1.8s0.8,1.8,1.8,1.8C88,79.2,88.8,78.4,88.8,77.4"/>
			<path d="M80.4,82.7C80.4,82.7,80.4,82.7,80.4,82.7C80.3,82.7,80.3,82.7,80.4,82.7C80.3,82.7,80.3,82.7,80.4,82.7
				C80.4,82.7,80.4,82.7,80.4,82.7"/>
			<path d="M13,71c0-0.7-0.6-1.3-1.3-1.3s-1.3,0.6-1.3,1.3c0,0.7,0.6,1.3,1.3,1.3S13,71.6,13,71"/>
			<path d="M8.7,63.7c0-0.7-0.6-1.4-1.3-1.4c-0.7,0-1.3,0.6-1.3,1.4S6.6,65,7.3,65C8.1,65,8.7,64.4,8.7,63.7"/>
			<path d="M4.3,55.8c0-0.1-0.1-0.1-0.1-0.1c-0.1,0-0.1,0.1-0.1,0.1c0,0.1,0.1,0.1,0.1,0.1C4.2,55.9,4.3,55.9,4.3,55.8"/>
			<path d="M104.4,67.9C104.4,67.9,104.4,67.9,104.4,67.9C104.4,67.9,104.4,67.9,104.4,67.9C104.4,67.9,104.4,67.9,104.4,67.9
				C104.4,67.9,104.4,67.9,104.4,67.9"/>
			<path d="M99.9,75.2C99.9,75.2,99.9,75.2,99.9,75.2C99.9,75.2,99.9,75.2,99.9,75.2C99.9,75.2,99.9,75.2,99.9,75.2
				C99.9,75.2,99.9,75.2,99.9,75.2"/>
			<path d="M94.5,81.8C94.5,81.8,94.5,81.7,94.5,81.8C94.4,81.7,94.4,81.8,94.5,81.8C94.4,81.8,94.4,81.8,94.5,81.8
				C94.5,81.8,94.5,81.8,94.5,81.8"/>
			<path d="M88.1,87.5C88.1,87.4,88.1,87.4,88.1,87.5c-0.1-0.1-0.2,0-0.2,0S88,87.6,88.1,87.5C88.1,87.6,88.1,87.5,88.1,87.5"/>
			<path d="M0.1,67.9C0.1,67.9,0.1,67.8,0.1,67.9C0,67.8,0,67.9,0.1,67.9C0,67.9,0,67.9,0.1,67.9C0.1,67.9,0.1,67.9,0.1,67.9"/>
			<g>
				<path class="st0" d="M55,41.1c0-1.6-1.3-2.8-2.8-2.8c-1.6,0-2.8,1.3-2.8,2.8c0,1.6,1.3,2.8,2.8,2.8C53.8,43.9,55,42.6,55,41.1"
					/>
			</g>
			<g>
				<path class="st0" d="M33.3,28.5c0-1.6-1.3-2.8-2.8-2.8c-1.6,0-2.8,1.3-2.8,2.8c0,1.6,1.3,2.8,2.8,2.8C32,31.3,33.3,30,33.3,28.5
					"/>
			</g>
			<g>
				<path class="st0" d="M24.7,55.3c0-1.6-1.3-2.8-2.8-2.8c-1.6,0-2.8,1.3-2.8,2.8c0,1.6,1.3,2.8,2.8,2.8
					C23.4,58.1,24.7,56.9,24.7,55.3"/>
			</g>
			<g>
				<path class="st0" d="M88.2,66.7c0-1.6-1.3-2.8-2.8-2.8c-1.6,0-2.8,1.3-2.8,2.8c0,1.6,1.3,2.8,2.8,2.8
					C86.9,69.5,88.2,68.3,88.2,66.7"/>
			</g>
		</g>
	</g>
</g>
</svg>
