<svg xmlns="http://www.w3.org/2000/svg" width="259" height="73" viewBox="0 0 259 73">
  <g fill="none" transform="translate(.1 .037)">
    <g transform="translate(103.9 11.963)">
      <path fill="#F7323F" d="M13.8,14.5 C13.8,15.9 13.6,17 13.3,17.8 C12.9,18.6 12.2,19.2 11.1,19.7 C10,20.2 8.5,20.4 6.6,20.4 C4.2,20.4 2.1,20 0.2,19.1 L0.9,15.7 C2.9,16.3 4.8,16.7 6.6,16.7 C7.7,16.7 8.5,16.6 8.8,16.3 C9.1,16 9.3,15.5 9.3,14.6 C9.3,14.1 9.3,13.7 9.3,13.5 C9.3,13.3 9.1,13.1 8.9,12.8 C8.7,12.6 8.3,12.4 7.9,12.3 C7.5,12.2 6.9,12 6,11.8 C3.6,11.3 2.1,10.7 1.5,9.9 C0.9,9.1 0.5,7.7 0.5,5.5 C0.5,3.5 1,2 1.9,1.2 C2.8,0.4 4.7,0 7.3,0 C9.3,0 11.3,0.2 13.3,0.7 L12.9,4.4 C10.7,4 8.9,3.8 7.4,3.8 C6.4,3.8 5.8,3.9 5.4,4.2 C5,4.5 4.9,4.9 4.9,5.7 C4.9,6.6 5,7.2 5.3,7.5 C5.6,7.7 6.5,8 8.1,8.4 C9,8.6 9.8,8.8 10.4,9 C11,9.2 11.5,9.4 12,9.7 C12.4,10 12.8,10.2 13,10.5 C13.2,10.7 13.4,11.1 13.5,11.6 C13.6,12.1 13.7,12.5 13.7,12.9 C13.8,13.1 13.8,13.7 13.8,14.5 Z"/>
      <polygon fill="#F7323F" points="24.7 17.5 21.3 9.1 21 20.1 16.7 20.1 17.5 .3 22 .3 26.7 12.9 31.4 .3 35.9 .3 36.7 20.1 32.4 20.1 32.1 9.1 28.7 17.5 24.7 17.5"/>
      <path fill="#F7323F" d="M50.7.2L56.8 20 52.2 20 51.1 16.1 44.5 16.1 43.4 20 38.8 20 44.8.2 50.7.2zM47.8 4.2L45.5 12.5 50 12.5 47.8 4.2zM70.4 20L66 13.9 63.4 13.9 63.4 20 59 20 59 .2 67.2.2C69.6.2 71.2.7 72.3 1.6 73.3 2.5 73.8 3.9 73.8 5.8L73.8 8.2C73.8 10.7 72.8 12.3 70.9 13.2L75.7 20 70.4 20 70.4 20zM69.4 7.8L69.4 6.2C69.4 5.4 69.2 4.9 68.9 4.6 68.6 4.3 67.9 4.1 67 4.1L63.5 4.1 63.5 10 67 10C67.9 10 68.5 9.8 68.9 9.5 69.2 9.2 69.4 8.6 69.4 7.8z"/>
      <polygon fill="#F7323F" points="90.9 4.2 85.6 4.2 85.6 20 81.1 20 81.1 4.2 75.8 4.2 75.8 .3 90.9 .3 90.9 4.2"/>
      <path fill="#F7323F" d="M103.4,6.7 L103.4,13.5 C103.4,14.4 103.6,15.1 104,15.6 C104.4,16 105.1,16.3 106.2,16.3 C107.8,16.3 109.5,16.1 111.3,15.8 L111.9,19.7 C109.9,20.1 108,20.3 106.2,20.3 C103.8,20.3 102,19.8 100.8,18.7 C99.6,17.6 99,16.1 99,14.3 L99,6 C99,4.1 99.6,2.6 100.8,1.6 C102,0.6 103.8,0 106.2,0 C108.1,0 110,0.2 111.9,0.6 L111.3,4.5 C109.5,4.2 107.8,4 106.2,4 C105.2,4 104.4,4.2 104,4.7 C103.6,5.1 103.4,5.8 103.4,6.7 Z"/>
      <polygon fill="#F7323F" points="119.5 20 115 20 115 .2 119.5 .2"/>
      <polygon fill="#F7323F" points="137 4.2 131.7 4.2 131.7 20 127.2 20 127.2 4.2 121.9 4.2 121.9 .3 137 .3"/>
      <polygon fill="#F7323F" points="155 .2 148.9 14.3 148.9 20 144.4 20 144.4 14.3 138.3 .2 143 .2 146.7 9.4 150.4 .2"/>
      <path fill="#000" d="M14.9,43.9 C14.9,45.3 14.4,46.5 13.5,47.3 C12.6,48.1 11.1,48.6 9.2,48.6 L0.8,48.6 L0.8,28.8 L8.6,28.8 C12.4,28.8 14.2,30.2 14.2,33.1 L14.2,35.1 C14.2,36.5 13.5,37.6 12,38.2 C12.8,38.4 13.5,38.8 14.1,39.5 C14.7,40.2 14.9,41 14.9,41.8 L14.9,43.9 L14.9,43.9 Z M9.8,35.5 L9.8,33.8 C9.8,32.9 9.2,32.4 8,32.4 L5.2,32.4 L5.2,36.9 L8,36.9 C8.6,36.9 9,36.8 9.3,36.5 C9.6,36.2 9.8,36 9.8,35.5 Z M10.5,43.3 L10.5,42.1 C10.5,41 9.9,40.4 8.6,40.4 L5.2,40.4 L5.2,45 L8,45 C8.8,45 9.4,44.9 9.8,44.6 C10.3,44.4 10.5,43.9 10.5,43.3 Z"/>
      <polygon fill="#000" points="30.2 48.6 17.8 48.6 17.8 28.8 30.2 28.8 30.2 32.7 22.2 32.7 22.2 36.3 29.6 36.3 29.6 40.2 22.2 40.2 22.2 44.5 30.2 44.5"/>
      <path fill="#000" d="M45,48.6 L40.6,42.5 L38,42.5 L38,48.6 L33.5,48.6 L33.5,28.8 L41.7,28.8 C44.1,28.8 45.7,29.3 46.8,30.2 C47.8,31.1 48.3,32.5 48.3,34.4 L48.3,36.8 C48.3,39.3 47.3,40.9 45.4,41.8 L50.2,48.6 L45,48.6 Z M44,36.4 L44,34.8 C44,34 43.8,33.5 43.5,33.2 C43.2,32.9 42.5,32.7 41.6,32.7 L38.1,32.7 L38.1,38.5 L41.6,38.5 C42.5,38.5 43.1,38.3 43.5,38 C43.8,37.8 44,37.2 44,36.4 Z"/>
      <polygon fill="#000" points="65 48.6 52.7 48.6 52.7 28.8 57.2 28.8 57.2 44.6 65 44.6"/>
      <polygon fill="#000" points="72.1 48.6 67.6 48.6 67.6 28.8 72.1 28.8"/>
      <polygon fill="#000" points="86.8 48.6 80.3 35.6 80.3 48.6 76.1 48.6 76.1 28.8 81.6 28.8 88.1 42.4 88.1 28.8 92.3 28.8 92.3 48.6"/>
    </g>
    <path fill="#000" d="M48.9 25.6625C48.9 24.0625 47.6 22.8625 46.1 22.8625 44.5 22.8625 43.3 24.1625 43.3 25.6625 43.3 27.2625 44.6 28.4625 46.1 28.4625 47.7 28.4625 48.9 27.1625 48.9 25.6625M56.2 29.8625C56.2 28.2625 54.9 27.0625 53.4 27.0625 51.8 27.0625 50.6 28.3625 50.6 29.8625 50.6 31.4625 51.9 32.6625 53.4 32.6625 54.9 32.6625 56.2 31.3625 56.2 29.8625M56.2 38.1625C56.2 36.5625 54.9 35.3625 53.4 35.3625 51.8 35.3625 50.6 36.6625 50.6 38.1625 50.6 39.7625 51.9 40.9625 53.4 40.9625 54.9 41.0625 56.2 39.7625 56.2 38.1625M48.9 42.3625C48.9 40.7625 47.6 39.5625 46.1 39.5625 44.5 39.5625 43.3 40.8625 43.3 42.3625 43.3 43.9625 44.6 45.1625 46.1 45.1625 47.7 45.2625 48.9 43.9625 48.9 42.3625M41.7 38.1625C41.7 36.5625 40.4 35.3625 38.9 35.3625 37.3 35.3625 36.1 36.6625 36.1 38.1625 36.1 39.7625 37.4 40.9625 38.9 40.9625 40.4 41.0625 41.7 39.7625 41.7 38.1625M41.7 29.8625C41.7 28.2625 40.4 27.0625 38.9 27.0625 37.3 27.0625 36.1 28.3625 36.1 29.8625 36.1 31.4625 37.4 32.6625 38.9 32.6625 40.4 32.6625 41.7 31.3625 41.7 29.8625M48.9 17.2625C48.9 15.6625 47.6 14.4625 46.1 14.4625 44.5 14.4625 43.3 15.7625 43.3 17.2625 43.3 18.8625 44.6 20.0625 46.1 20.0625 47.7 20.0625 48.9 18.8625 48.9 17.2625M57.3 19.4625C57.3 17.8625 56 16.6625 54.5 16.6625 52.9 16.6625 51.7 17.9625 51.7 19.4625 51.7 21.0625 53 22.2625 54.5 22.2625 56 22.3625 57.3 21.0625 57.3 19.4625M63.4 25.6625C63.4 24.0625 62.1 22.8625 60.6 22.8625 59.1 22.8625 57.8 24.1625 57.8 25.6625 57.8 27.2625 59.1 28.4625 60.6 28.4625 62.1 28.4625 63.4 27.1625 63.4 25.6625M65.7 34.0625C65.7 32.4625 64.4 31.2625 62.9 31.2625 61.3 31.2625 60.1 32.5625 60.1 34.0625 60.1 35.6625 61.4 36.8625 62.9 36.8625 64.4 36.8625 65.7 35.5625 65.7 34.0625M63.4 42.3625C63.4 40.7625 62.1 39.5625 60.6 39.5625 59.1 39.5625 57.8 40.8625 57.8 42.3625 57.8 43.9625 59.1 45.1625 60.6 45.1625 62.1 45.1625 63.4 43.9625 63.4 42.3625M57.3 48.5625C57.3 46.9625 56 45.7625 54.5 45.7625 52.9 45.7625 51.7 47.0625 51.7 48.5625 51.7 50.1625 53 51.3625 54.5 51.3625 56 51.3625 57.3 50.0625 57.3 48.5625M48.9 50.7625C48.9 49.1625 47.6 47.9625 46.1 47.9625 44.5 47.9625 43.3 49.2625 43.3 50.7625 43.3 52.3625 44.6 53.5625 46.1 53.5625 47.7 53.5625 48.9 52.3625 48.9 50.7625M40.5 48.5625C40.5 46.9625 39.2 45.7625 37.7 45.7625 36.1 45.7625 34.9 47.0625 34.9 48.5625 34.9 50.1625 36.2 51.3625 37.7 51.3625 39.3 51.3625 40.5 50.0625 40.5 48.5625M34.4 42.3625C34.4 40.7625 33.1 39.5625 31.6 39.5625 30 39.5625 28.8 40.8625 28.8 42.3625 28.8 43.9625 30.1 45.1625 31.6 45.1625 33.1 45.2625 34.4 43.9625 34.4 42.3625M32.2 34.0625C32.2 32.4625 30.9 31.2625 29.4 31.2625 27.8 31.2625 26.6 32.5625 26.6 34.0625 26.6 35.6625 27.9 36.8625 29.4 36.8625 30.9 36.8625 32.2 35.5625 32.2 34.0625M34.4 25.6625C34.4 24.0625 33.1 22.8625 31.6 22.8625 30 22.8625 28.8 24.1625 28.8 25.6625 28.8 27.2625 30.1 28.4625 31.6 28.4625 33.1 28.4625 34.4 27.1625 34.4 25.6625M40.5 19.4625C40.5 17.8625 39.2 16.6625 37.7 16.6625 36.1 16.6625 34.9 17.9625 34.9 19.4625 34.9 21.0625 36.2 22.2625 37.7 22.2625 39.3 22.3625 40.5 21.0625 40.5 19.4625M48.6 8.8625C48.6 7.4625 47.5 6.3625 46.1 6.3625 44.7 6.3625 43.6 7.4625 43.6 8.8625 43.6 10.2625 44.7 11.3625 46.1 11.3625 47.5 11.3625 48.6 10.2625 48.6 8.8625M57.4 10.3625C57.4 8.8625 56.2 7.6625 54.7 7.6625 53.2 7.6625 52 8.8625 52 10.3625 52 11.8625 53.2 13.0625 54.7 13.0625 56.2 13.0625 57.4 11.8625 57.4 10.3625M62.5 14.7625C62.5 14.6625 62.4 14.4625 62.2 14.4625 62.1 14.4625 61.9 14.5625 61.9 14.7625 61.9 14.8625 62 15.0625 62.2 15.0625 62.4 15.0625 62.5 14.8625 62.5 14.7625M69.2 21.4625C69.2 20.7625 68.6 20.1625 67.9 20.1625 67.2 20.1625 66.6 20.7625 66.6 21.4625 66.6 22.1625 67.2 22.7625 67.9 22.7625 68.6 22.7625 69.2 22.1625 69.2 21.4625M73.1 29.6625C73.1 28.3625 72.1 27.3625 70.8 27.3625 69.5 27.3625 68.5 28.3625 68.5 29.6625 68.5 30.9625 69.5 31.9625 70.8 31.9625 72.1 31.9625 73.1 30.8625 73.1 29.6625M73.7 38.3625C73.7 36.7625 72.4 35.5625 70.9 35.5625 69.3 35.5625 68.1 36.8625 68.1 38.3625 68.1 39.8625 69.4 41.1625 70.9 41.1625 72.4 41.1625 73.7 39.9625 73.7 38.3625M70.7 46.5625C70.7 44.9625 69.4 43.7625 67.9 43.7625 66.4 43.7625 65.1 45.0625 65.1 46.5625 65.1 48.1625 66.4 49.3625 67.9 49.3625 69.4 49.3625 70.7 48.1625 70.7 46.5625M65.1 53.2625C65.1 51.6625 63.8 50.4625 62.3 50.4625 60.7 50.4625 59.5 51.7625 59.5 53.2625 59.5 54.8625 60.8 56.0625 62.3 56.0625 63.8 56.0625 65.1 54.8625 65.1 53.2625M57 57.6625C57 56.3625 56 55.3625 54.7 55.3625 53.4 55.3625 52.4 56.3625 52.4 57.6625 52.4 58.9625 53.4 59.9625 54.7 59.9625 56 59.9625 57 58.8625 57 57.6625M48.3 59.1625C48.3 57.9625 47.3 56.9625 46.1 56.9625 44.9 56.9625 43.9 57.9625 43.9 59.1625 43.9 60.3625 44.9 61.3625 46.1 61.3625 47.3 61.3625 48.3 60.3625 48.3 59.1625M40.3 57.6625C40.3 56.0625 39 54.8625 37.5 54.8625 35.9 54.8625 34.7 56.1625 34.7 57.6625 34.7 59.2625 36 60.4625 37.5 60.4625 39.1 60.4625 40.3 59.1625 40.3 57.6625M32.8 53.2625C32.8 51.6625 31.5 50.4625 30 50.4625 28.4 50.4625 27.2 51.7625 27.2 53.2625 27.2 54.8625 28.5 56.0625 30 56.0625 31.5 56.0625 32.8 54.8625 32.8 53.2625M27.2 46.5625C27.2 44.9625 25.9 43.7625 24.4 43.7625 22.8 43.7625 21.6 45.0625 21.6 46.5625 21.6 48.1625 22.9 49.3625 24.4 49.3625 25.9 49.3625 27.2 48.1625 27.2 46.5625M24.2 38.3625C24.2 36.7625 22.9 35.5625 21.4 35.5625 19.8 35.5625 18.6 36.8625 18.6 38.3625 18.6 39.8625 19.9 41.1625 21.4 41.1625 22.9 41.1625 24.2 39.9625 24.2 38.3625M24.2 29.6625C24.2 28.0625 22.9 26.8625 21.4 26.8625 19.8 26.8625 18.6 28.1625 18.6 29.6625 18.6 31.2625 19.9 32.4625 21.4 32.4625 22.9 32.4625 24.2 31.1625 24.2 29.6625M32.8 14.7625C32.8 13.1625 31.5 11.9625 30 11.9625 28.4 11.9625 27.2 13.2625 27.2 14.7625 27.2 16.3625 28.5 17.5625 30 17.5625 31.5 17.5625 32.8 16.3625 32.8 14.7625M39.2 10.3625C39.2 9.4625 38.5 8.7625 37.6 8.7625 36.7 8.7625 36 9.4625 36 10.3625 36 11.2625 36.7 11.9625 37.6 11.9625 38.4 12.0625 39.2 11.2625 39.2 10.3625M46.1.4625C46.1.4625 46.1.4625 46.1.4625 46.1.4625 46.1.4625 46.1.4625 46.1.5625 46.1.5625 46.1.4625 46.1.5625 46.1.5625 46.1.4625M55.8 1.5625C55.8.7625 55.2.1625 54.4.1625 53.6.1625 53 .7625 53 1.5625 53 2.3625 53.6 2.9625 54.4 2.9625 55.2 2.9625 55.8 2.3625 55.8 1.5625M62.7 4.6625C62.7 4.4625 62.5 4.2625 62.3 4.2625 62.1 4.2625 61.9 4.4625 61.9 4.6625 61.9 4.8625 62.1 5.0625 62.3 5.0625 62.5 5.0625 62.7 4.8625 62.7 4.6625M80.3 31.8625C80.3 31.4625 80 31.1625 79.6 31.1625 79.2 31.1625 78.9 31.4625 78.9 31.8625 78.9 32.2625 79.2 32.5625 79.6 32.5625 80 32.6625 80.3 32.3625 80.3 31.8625M79.4 40.2625C79.4 40.0625 79.3 39.9625 79.1 39.9625 78.9 39.9625 78.8 40.0625 78.8 40.2625 78.8 40.4625 78.9 40.5625 79.1 40.5625 79.2 40.6625 79.4 40.4625 79.4 40.2625M78.6 48.2625C78.6 47.0625 77.6 46.0625 76.4 46.0625 75.2 46.0625 74.2 47.0625 74.2 48.2625 74.2 49.4625 75.2 50.4625 76.4 50.4625 77.6 50.4625 78.6 49.4625 78.6 48.2625M74.8 55.3625C74.8 53.7625 73.5 52.5625 72 52.5625 70.5 52.5625 69.2 53.8625 69.2 55.3625 69.2 56.9625 70.5 58.1625 72 58.1625 73.5 58.1625 74.8 56.9625 74.8 55.3625M68.6 61.1625C68.6 59.6625 67.4 58.3625 65.8 58.3625 64.3 58.3625 63 59.5625 63 61.1625 63 62.6625 64.2 63.9625 65.8 63.9625 67.3 63.8625 68.6 62.6625 68.6 61.1625M59 65.1625C59 64.8625 58.8 64.5625 58.4 64.5625 58.1 64.5625 57.8 64.7625 57.8 65.1625 57.8 65.4625 58 65.7625 58.4 65.7625 58.7 65.7625 59 65.4625 59 65.1625M50.4 67.2625C50.4 67.2625 50.4 67.1625 50.4 67.2625 50.2 67.1625 50.2 67.1625 50.2 67.2625 50.2 67.3625 50.2 67.3625 50.4 67.2625 50.4 67.3625 50.4 67.3625 50.4 67.2625M43.2 67.2625C43.2 66.5625 42.6 65.9625 41.9 65.9625 41.2 65.9625 40.6 66.5625 40.6 67.2625 40.6 67.9625 41.2 68.5625 41.9 68.5625 42.6 68.5625 43.2 67.9625 43.2 67.2625M34 65.1625C34 65.0625 33.9 64.9625 33.8 64.9625 33.7 64.9625 33.6 65.0625 33.6 65.1625 33.6 65.2625 33.7 65.3625 33.8 65.3625 33.9 65.3625 34 65.2625 34 65.1625M27.7 61.1625C27.7 60.4625 27.1 59.8625 26.4 59.8625 25.7 59.8625 25.1 60.4625 25.1 61.1625 25.1 61.8625 25.7 62.4625 26.4 62.4625 27.1 62.3625 27.7 61.8625 27.7 61.1625M22.9 55.3625C22.9 53.8625 21.7 52.7625 20.3 52.7625 18.8 52.7625 17.7 53.9625 17.7 55.3625 17.7 56.8625 18.9 57.9625 20.3 57.9625 21.7 58.0625 22.9 56.8625 22.9 55.3625M16 40.2625C16 38.6625 14.7 37.4625 13.2 37.4625 11.6 37.4625 10.4 38.7625 10.4 40.2625 10.4 41.8625 11.7 43.0625 13.2 43.0625 14.7 43.0625 16 41.8625 16 40.2625M15.5 31.8625C15.5 30.2625 14.2 29.0625 12.7 29.0625 11.2 29.0625 9.9 30.3625 9.9 31.8625 9.9 33.4625 11.2 34.6625 12.7 34.6625 14.2 34.6625 15.5 33.4625 15.5 31.8625M17 23.6625C17 22.0625 15.7 20.8625 14.2 20.8625 12.6 20.8625 11.4 22.1625 11.4 23.6625 11.4 25.2625 12.7 26.4625 14.2 26.4625 15.8 26.4625 17 25.2625 17 23.6625M19.9 16.0625C19.9 14.8625 19 13.9625 17.8 13.9625 16.6 13.9625 15.7 14.8625 15.7 16.0625 15.7 17.2625 16.6 18.1625 17.8 18.1625 19 18.1625 19.9 17.1625 19.9 16.0625M25.1 9.5625C25.1 8.4625 24.2 7.5625 23.1 7.5625 22 7.5625 21.1 8.4625 21.1 9.5625 21.1 10.6625 22 11.5625 23.1 11.5625 24.2 11.5625 25.1 10.6625 25.1 9.5625M30.8 4.6625C30.8 4.1625 30.4 3.8625 30 3.8625 29.6 3.8625 29.2 4.2625 29.2 4.6625 29.2 5.1625 29.6 5.4625 30 5.4625 30.4 5.4625 30.8 5.0625 30.8 4.6625M86.8 44.5625C86.8 44.4625 86.7 44.4625 86.7 44.4625 86.6 44.4625 86.6 44.5625 86.6 44.5625 86.6 44.6625 86.7 44.6625 86.7 44.6625 86.7 44.6625 86.8 44.5625 86.8 44.5625M86.5 52.4625C86.5 50.9625 85.3 49.6625 83.7 49.6625 82.2 49.6625 80.9 50.8625 80.9 52.4625 80.9 53.9625 82.1 55.2625 83.7 55.2625 85.3 55.2625 86.5 53.9625 86.5 52.4625M75.2 65.7625C75.2 64.7625 74.4 63.9625 73.4 63.9625 72.4 63.9625 71.6 64.7625 71.6 65.7625 71.6 66.7625 72.4 67.5625 73.4 67.5625 74.4 67.5625 75.2 66.7625 75.2 65.7625M66.5 70.6625C66.5 70.6625 66.5 70.6625 66.5 70.6625 66.4 70.6625 66.4 70.6625 66.5 70.6625 66.4 70.6625 66.4 70.6625 66.5 70.6625 66.5 70.6625 66.5 70.6625 66.5 70.6625M18.8 65.7625C18.8 65.7625 18.8 65.7625 18.8 65.7625 18.8 65.7625 18.8 65.7625 18.8 65.7625 18.8 65.8625 18.8 65.8625 18.8 65.7625 18.8 65.8625 18.8 65.8625 18.8 65.7625M14.4 59.6625C14.4 58.8625 13.8 58.2625 13 58.2625 12.2 58.2625 11.6 58.8625 11.6 59.6625 11.6 60.4625 12.2 61.0625 13 61.0625 13.7 61.0625 14.4 60.4625 14.4 59.6625M11.3 52.4625C11.3 50.8625 10 49.6625 8.5 49.6625 6.9 49.6625 5.7 50.9625 5.7 52.4625 5.7 54.0625 7 55.2625 8.5 55.2625 10 55.2625 11.3 54.0625 11.3 52.4625M7.5 44.5625C7.5 43.4625 6.6 42.6625 5.6 42.6625 4.5 42.6625 3.7 43.5625 3.7 44.5625 3.7 45.6625 4.6 46.4625 5.6 46.4625 6.6 46.4625 7.5 45.5625 7.5 44.5625M4.9 36.1625C4.9 35.8625 4.6 35.5625 4.3 35.5625 4 35.5625 3.7 35.8625 3.7 36.1625 3.7 36.4625 4 36.7625 4.3 36.7625 4.6 36.7625 4.9 36.4625 4.9 36.1625M6 27.6625C6 26.9625 5.4 26.3625 4.6 26.3625 3.8 26.3625 3.3 26.9625 3.3 27.6625 3.3 28.3625 3.9 28.9625 4.7 28.9625 5.5 28.9625 6 28.4625 6 27.6625M8.1 19.4625C8.1 18.7625 7.5 18.1625 6.8 18.1625 6.1 18.1625 5.5 18.7625 5.5 19.4625 5.5 20.1625 6.1 20.7625 6.8 20.7625 7.5 20.7625 8.1 20.1625 8.1 19.4625M10.6 11.8625C10.6 11.8625 10.6 11.8625 10.6 11.8625 10.5 11.8625 10.5 11.8625 10.6 11.8625 10.5 11.8625 10.5 11.8625 10.6 11.8625 10.6 11.8625 10.6 11.8625 10.6 11.8625M15.8 5.1625C15.8 5.1625 15.8 5.1625 15.8 5.1625 15.7 5.1625 15.7 5.1625 15.8 5.1625 15.7 5.1625 15.7 5.1625 15.8 5.1625 15.8 5.1625 15.8 5.1625 15.8 5.1625M94.3 48.7625C94.3 48.6625 94.2 48.5625 94.1 48.5625 94 48.5625 93.9 48.6625 93.9 48.7625 93.9 48.8625 94 48.9625 94.1 48.9625 94.3 48.8625 94.3 48.8625 94.3 48.7625M93.1 56.6625C93.1 55.4625 92.2 54.5625 91 54.5625 89.8 54.5625 88.9 55.4625 88.9 56.6625 88.9 57.8625 89.8 58.7625 91 58.7625 92.2 58.7625 93.1 57.7625 93.1 56.6625M88.7 63.9625C88.7 62.7625 87.7 61.7625 86.5 61.7625 85.3 61.7625 84.3 62.7625 84.3 63.9625 84.3 65.1625 85.3 66.1625 86.5 66.1625 87.7 66.1625 88.7 65.1625 88.7 63.9625M82.7 70.3625C82.7 69.3625 81.9 68.5625 80.9 68.5625 79.9 68.5625 79.1 69.3625 79.1 70.3625 79.1 71.3625 79.9 72.1625 80.9 72.1625 81.9 72.1625 82.7 71.3625 82.7 70.3625M6.9 63.9625C6.9 63.2625 6.3 62.6625 5.6 62.6625 4.9 62.6625 4.3 63.2625 4.3 63.9625 4.3 64.6625 4.9 65.2625 5.6 65.2625 6.3 65.2625 6.9 64.5625 6.9 63.9625M2.6 56.6625C2.6 55.9625 2 55.2625 1.3 55.2625.6 55.2625 0 55.8625 0 56.6625 0 57.4625.5 57.9625 1.2 57.9625 2 57.9625 2.6 57.3625 2.6 56.6625"/>
    <path fill="#F7323F" d="M48.9 34.0625C48.9 32.4625 47.6 31.2625 46.1 31.2625 44.5 31.2625 43.3 32.5625 43.3 34.0625 43.3 35.6625 44.6 36.8625 46.1 36.8625 47.7 36.8625 48.9 35.5625 48.9 34.0625M27.2 21.4625C27.2 19.8625 25.9 18.6625 24.4 18.6625 22.8 18.6625 21.6 19.9625 21.6 21.4625 21.6 23.0625 22.9 24.2625 24.4 24.2625 25.9 24.2625 27.2 22.9625 27.2 21.4625M18.6 48.2625C18.6 46.6625 17.3 45.4625 15.8 45.4625 14.2 45.4625 13 46.7625 13 48.2625 13 49.8625 14.3 51.0625 15.8 51.0625 17.3 51.0625 18.6 49.8625 18.6 48.2625M82.1 59.6625C82.1 58.0625 80.8 56.8625 79.3 56.8625 77.7 56.8625 76.5 58.1625 76.5 59.6625 76.5 61.2625 77.8 62.4625 79.3 62.4625 80.8 62.4625 82.1 61.2625 82.1 59.6625"/>
  </g>
</svg>
