<svg xmlns="http://www.w3.org/2000/svg" width="261" height="88" viewBox="0 0 261 88">
  <g fill="none">
    <polygon fill="#F64C72" points="0 17.978 36.903 0 36.903 46.281 0 66.237" opacity=".595"/>
    <polygon fill="#F64C72" points="18.925 27.361 54.882 8.516 54.882 55.076 18.925 76.645" opacity=".6"/>
    <polygon fill="#F64C72" points="0 17.978 0 66.237 38.796 88 38.796 37.211" opacity=".396"/>
    <polygon fill="#F64C72" points="36.903 0 36.903 45.814 74.753 65.29 74.753 18" opacity=".396"/>
    <polygon fill="#F64C72" points="18.925 8.516 18.925 55.393 58.667 75.699 58.667 26.668" opacity=".396"/>
    <g transform="translate(38.796 17.978)">
      <polygon fill="#FFF" points="35.957 .022 35.957 47.845 0 69.895 0 19.198"/>
      <g fill="#000" transform="translate(0 .568)">
        <circle cx="1.419" cy="21.385" r="1.419"/>
        <circle cx="1.419" cy="44.095" r="1.419"/>
        <circle cx="1.419" cy="55.449" r="1.419"/>
        <circle cx="1.419" cy="66.804" r="1.419"/>
        <circle cx="1.419" cy="49.772" r="1.419"/>
        <circle cx="1.419" cy="61.127" r="1.419"/>
        <circle cx="35.484" cy="46.271" r="1.419"/>
        <circle cx="30.753" cy="48.826" r="1.419"/>
        <circle cx="26.022" cy="51.854" r="1.419"/>
        <circle cx="21.29" cy="54.787" r="1.419"/>
        <circle cx="16.559" cy="57.626" r="1.419"/>
        <circle cx="11.828" cy="60.465" r="1.419"/>
        <circle cx="6.718" cy="63.682" r="1.419"/>
        <circle cx="35.484" cy="29.239" r="1.419"/>
        <circle cx="35.484" cy="40.594" r="1.419"/>
        <circle cx="35.484" cy="23.561" r="1.419"/>
        <circle cx="35.484" cy="12.206" r="1.419"/>
        <circle cx="35.484" cy="34.916" r="1.419"/>
        <circle cx="35.484" cy="17.884" r="1.419"/>
        <circle cx="35.484" cy="6.529" r="1.419"/>
        <circle cx="35.484" cy="1.419" r="1.419"/>
        <circle cx="9.935" cy="14.951" r="1.419"/>
        <circle cx="4.542" cy="17.789" r="1.419"/>
        <circle cx="15.234" cy="12.206" r="1.419"/>
        <circle cx="20.344" cy="9.368" r="1.419"/>
        <circle cx="25.643" cy="6.624" r="1.419"/>
        <circle cx="30.753" cy="3.974" r="1.419"/>
        <circle cx="1.419" cy="32.74" r="1.419"/>
        <circle cx="1.419" cy="27.062" r="1.419"/>
        <circle cx="1.419" cy="38.417" r="1.419"/>
      </g>
    </g>
    <path fill="#000" d="M96.2936963,35.9569892 C96.9751808,35.9569892 97.5866914,35.8652489 98.1282282,35.6817681 C98.6697649,35.4982874 99.1291585,35.2414142 99.5064088,34.9111488 C99.8836592,34.5808835 100.172682,34.1772258 100.373476,33.7001757 C100.574271,33.2231257 100.674668,32.6910315 100.674668,32.103893 C100.674668,31.149793 100.394773,30.3852898 99.8349817,29.8103833 C99.2751909,29.2354769 98.3685731,28.8073551 97.1151285,28.5260179 L97.1151285,28.5260179 L96.0746477,28.2874929 C95.2714695,28.1040121 94.6721283,27.8563131 94.2766239,27.5443958 C93.8811195,27.2324785 93.6833673,26.7707185 93.6833673,26.159116 C93.6833673,25.461889 93.9176276,24.9389688 94.3861482,24.5903553 C94.8546688,24.2417419 95.4966028,24.0674351 96.3119503,24.0674351 C97.0542816,24.0674351 97.6749193,24.2081037 98.1738633,24.4894409 C98.6728073,24.7707781 99.0987351,25.1560877 99.4516467,25.6453698 L99.4516467,25.6453698 L100.601652,24.8013582 C100.127046,24.1163634 99.5459593,23.5965012 98.8583901,23.2417717 C98.1708209,22.8870422 97.3463464,22.7096774 96.3849665,22.7096774 C95.7643289,22.7096774 95.195411,22.7861277 94.678213,22.9390284 C94.1610149,23.091929 93.7168331,23.315164 93.3456674,23.6087332 C92.9745017,23.9023024 92.6854793,24.269264 92.4786001,24.7096179 C92.2717209,25.1499717 92.1682813,25.6514858 92.1682813,26.2141602 C92.1682813,27.2049564 92.4755577,27.9725176 93.0901107,28.5168439 C93.7046637,29.0611702 94.5960697,29.4678859 95.7643289,29.736991 L95.7643289,29.736991 L96.8048096,29.975516 C97.6444959,30.1712289 98.2468795,30.434218 98.6119605,30.7644834 C98.9770414,31.0947488 99.1595819,31.5656827 99.1595819,32.1772854 C99.1595819,32.9112084 98.9192369,33.4983468 98.438547,33.9387007 C97.957857,34.3790546 97.2611608,34.5992316 96.3484584,34.5992316 C95.6061271,34.5992316 94.9611507,34.4432729 94.4135292,34.1313555 C93.8659078,33.8194382 93.3669638,33.3637944 92.9166973,32.7644238 L92.9166973,32.7644238 L91.7849462,33.7185238 C92.2960596,34.4157507 92.9166973,34.963135 93.6468592,35.3606767 C94.3770212,35.7582184 95.2593002,35.9569892 96.2936963,35.9569892 Z M104.818337,35.7368123 L104.818337,24.9481429 L104.909607,24.9481429 L105.986596,27.0948679 L109.035022,32.6726834 L112.083448,27.0948679 L113.160437,24.9481429 L113.251707,24.9481429 L113.251707,35.7368123 L114.74854,35.7368123 L114.74854,22.9298543 L112.777102,22.9298543 L109.108038,29.8287314 L109.016768,29.8287314 L105.365959,22.9298543 L103.321505,22.9298543 L103.321505,35.7368123 L104.818337,35.7368123 Z M118.417603,35.7368123 L119.695387,31.9571084 L124.843029,31.9571084 L126.120812,35.7368123 L127.727168,35.7368123 L123.27318,22.9298543 L121.319997,22.9298543 L116.866009,35.7368123 L118.417603,35.7368123 Z M124.459693,30.5993507 L120.060468,30.5993507 L122.214445,24.3610044 L122.305716,24.3610044 L124.459693,30.5993507 Z M131.377978,35.7368123 L131.377978,30.2323891 L134.353388,30.2323891 L137.109749,35.7368123 L138.843884,35.7368123 L135.923236,30.0856045 C136.762922,29.8898917 137.398772,29.489292 137.830784,28.8838054 C138.262797,28.2783189 138.478803,27.5046416 138.478803,26.5627737 C138.478803,25.3884967 138.165442,24.4894409 137.538719,23.8656063 C136.911997,23.2417717 136.038845,22.9298543 134.919263,22.9298543 L134.919263,22.9298543 L129.844638,22.9298543 L129.844638,35.7368123 L131.377978,35.7368123 Z M134.919263,28.9113276 L131.377978,28.9113276 L131.377978,24.2876121 L134.919263,24.2876121 C135.527732,24.2876121 135.999295,24.4466287 136.333952,24.7646621 C136.66861,25.0826954 136.835938,25.5352813 136.835938,26.1224198 L136.835938,26.1224198 L136.835938,27.0765198 C136.835938,27.6636583 136.66861,28.1162442 136.333952,28.4342775 C135.999295,28.7523109 135.527732,28.9113276 134.919263,28.9113276 L134.919263,28.9113276 Z M145.378833,35.7368123 L145.378833,24.2876121 L149.431232,24.2876121 L149.431232,22.9298543 L139.793094,22.9298543 L139.793094,24.2876121 L143.845493,24.2876121 L143.845493,35.7368123 L145.378833,35.7368123 Z M160.328899,35.9569892 C161.399803,35.9569892 162.312506,35.6970582 163.067006,35.177196 C163.821507,34.6573338 164.399552,33.9448167 164.801141,33.0396449 L164.801141,33.0396449 L163.57812,32.2690257 C163.322563,32.9662527 162.920974,33.525869 162.373353,33.9478748 C161.825731,34.3698806 161.144247,34.5808835 160.328899,34.5808835 C159.221487,34.5808835 158.363547,34.2078059 157.755078,33.4616507 C157.14661,32.7154956 156.842376,31.6818872 156.842376,30.3608257 L156.842376,30.3608257 L156.842376,28.4526256 C156.842376,27.7920948 156.921477,27.1957823 157.079678,26.6636881 C157.23788,26.1315938 157.466056,25.6728919 157.764205,25.2875823 C158.062355,24.9022727 158.427436,24.6056454 158.859448,24.3977005 C159.291461,24.1897557 159.781278,24.0857832 160.328899,24.0857832 C161.119908,24.0857832 161.777054,24.2845541 162.300336,24.6820957 C162.823619,25.0796374 163.213039,25.6086736 163.468596,26.2692044 L163.468596,26.2692044 L164.709871,25.5169332 C164.308282,24.6239935 163.745449,23.9328826 163.021371,23.4436005 C162.297294,22.9543185 161.399803,22.7096774 160.328899,22.7096774 C158.710374,22.7096774 157.450844,23.2876419 156.550311,24.4435707 C155.649778,25.5994996 155.199511,27.2538846 155.199511,29.4067256 C155.199511,31.5595667 155.649778,33.1894876 156.550311,34.2964883 C157.450844,35.4034889 158.710374,35.9569892 160.328899,35.9569892 Z M171.682917,35.7368123 L171.682917,34.4524469 L169.894021,34.4524469 L169.894021,24.2142198 L171.682917,24.2142198 L171.682917,22.9298543 L166.571784,22.9298543 L166.571784,24.2142198 L168.360681,24.2142198 L168.360681,34.4524469 L166.571784,34.4524469 L166.571784,35.7368123 L171.682917,35.7368123 Z M178.63771,35.7368123 L178.63771,24.2876121 L182.690109,24.2876121 L182.690109,22.9298543 L173.051971,22.9298543 L173.051971,24.2876121 L177.10437,24.2876121 L177.10437,35.7368123 L178.63771,35.7368123 Z M189.334582,35.7368123 L189.334582,30.6176987 L193.770316,22.9298543 L192.017927,22.9298543 L188.622675,29.0948083 L188.567912,29.0948083 L185.172659,22.9298543 L183.420271,22.9298543 L187.801243,30.672743 L187.801243,35.7368123 L189.334582,35.7368123 Z M205.799734,35.7368123 C206.27434,35.7368123 206.712437,35.6420139 207.114026,35.4524171 C207.515615,35.2628204 207.862442,35.0028893 208.154506,34.6726239 C208.446572,34.3423584 208.674747,33.9509328 208.839034,33.4983468 C209.00332,33.0457609 209.085463,32.556479 209.085463,32.0305007 C209.085463,31.5045225 208.997235,31.0549946 208.82078,30.681917 C208.644324,30.3088394 208.428318,30.0030382 208.172761,29.7645132 C207.917204,29.5259881 207.646436,29.3516814 207.360456,29.2415929 C207.074476,29.1315045 206.815877,29.0703442 206.584658,29.0581122 L206.584658,29.0581122 L206.584658,28.9480237 C206.791538,28.9113276 207.016671,28.8409933 207.260058,28.7370208 C207.503446,28.6330484 207.728579,28.4740317 207.935458,28.2599708 C208.142338,28.0459099 208.312709,27.7737468 208.446572,27.4434814 C208.580435,27.113216 208.647366,26.7095583 208.647366,26.2325083 C208.647366,25.22948 208.346174,24.4282807 207.743791,23.8289101 C207.141407,23.2295396 206.310848,22.9298543 205.252113,22.9298543 L205.252113,22.9298543 L200.013202,22.9298543 L200.013202,35.7368123 L205.799734,35.7368123 Z M205.069573,28.4709737 L201.546541,28.4709737 L201.546541,24.2876121 L205.069573,24.2876121 C205.678041,24.2876121 206.152646,24.4405127 206.493388,24.746314 C206.834131,25.0521153 207.004502,25.4924691 207.004502,26.0673756 L207.004502,26.0673756 L207.004502,26.6912102 C207.004502,27.2661166 206.834131,27.7064705 206.493388,28.0122718 C206.152646,28.3180731 205.678041,28.4709737 205.069573,28.4709737 L205.069573,28.4709737 Z M205.325129,34.3790546 L201.546541,34.3790546 L201.546541,29.7920353 L205.325129,29.7920353 C205.982275,29.7920353 206.499473,29.960226 206.876724,30.2966074 C207.253974,30.6329888 207.442599,31.1253289 207.442599,31.7736276 L207.442599,31.7736276 L207.442599,32.3974622 C207.442599,33.0457609 207.253974,33.5381011 206.876724,33.8744825 C206.499473,34.2108639 205.982275,34.3790546 205.325129,34.3790546 L205.325129,34.3790546 Z M219.70932,35.7368123 L219.70932,34.3790546 L213.466435,34.3790546 L213.466435,29.9388199 L219.344239,29.9388199 L219.344239,28.5810622 L213.466435,28.5810622 L213.466435,24.2876121 L219.70932,24.2876121 L219.70932,22.9298543 L211.933095,22.9298543 L211.933095,35.7368123 L219.70932,35.7368123 Z M224.108545,35.7368123 L224.108545,30.2323891 L227.083956,30.2323891 L229.840317,35.7368123 L231.574452,35.7368123 L228.653804,30.0856045 C229.49349,29.8898917 230.129339,29.489292 230.561351,28.8838054 C230.993364,28.2783189 231.20937,27.5046416 231.20937,26.5627737 C231.20937,25.3884967 230.89601,24.4894409 230.269287,23.8656063 C229.642564,23.2417717 228.769413,22.9298543 227.649831,22.9298543 L227.649831,22.9298543 L222.575206,22.9298543 L222.575206,35.7368123 L224.108545,35.7368123 Z M227.649831,28.9113276 L224.108545,28.9113276 L224.108545,24.2876121 L227.649831,24.2876121 C228.258299,24.2876121 228.729862,24.4466287 229.064519,24.7646621 C229.399177,25.0826954 229.566506,25.5352813 229.566506,26.1224198 L229.566506,26.1224198 L229.566506,27.0765198 C229.566506,27.6636583 229.399177,28.1162442 229.064519,28.4342775 C228.729862,28.7523109 228.258299,28.9113276 227.649831,28.9113276 L227.649831,28.9113276 Z M241.212589,35.7368123 L241.212589,34.3790546 L235.791136,34.3790546 L235.791136,22.9298543 L234.257797,22.9298543 L234.257797,35.7368123 L241.212589,35.7368123 Z M247.911825,35.7368123 L247.911825,34.4524469 L246.122928,34.4524469 L246.122928,24.2142198 L247.911825,24.2142198 L247.911825,22.9298543 L242.800691,22.9298543 L242.800691,24.2142198 L244.589588,24.2142198 L244.589588,34.4524469 L242.800691,34.4524469 L242.800691,35.7368123 L247.911825,35.7368123 Z M252.201527,35.7368123 L252.201527,25.0765794 L252.256288,25.0765794 L253.789629,27.9205314 L258.444411,35.7368123 L260.215054,35.7368123 L260.215054,22.9298543 L258.718222,22.9298543 L258.718222,33.5900873 L258.66346,33.5900873 L257.130119,30.7461353 L252.475337,22.9298543 L250.704694,22.9298543 L250.704694,35.7368123 L252.201527,35.7368123 Z M95.8887578,58.4966012 C96.767027,58.4966012 97.5488197,58.3614716 98.2341358,58.0912124 C98.919452,57.8209534 99.4983113,57.4650023 99.9707136,57.0233593 C100.443116,56.5817164 100.802408,56.0774523 101.048589,55.5105673 C101.294771,54.9436823 101.417862,54.3636139 101.417862,53.7703621 C101.417862,52.7288758 101.111798,51.9180983 100.499671,51.3380299 C99.8875442,50.7579615 99.0558499,50.3558687 98.0045882,50.1317513 L98.0045882,50.1317513 L97.006555,49.9340008 C96.4476564,49.8153504 96.0284824,49.634079 95.7490331,49.3901866 C95.4695838,49.1462942 95.3298592,48.793639 95.3298592,48.332221 C95.3298592,47.7521526 95.55608,47.2940304 96.0085218,46.9578544 C96.4609635,46.6216784 97.0863976,46.4535905 97.8848242,46.4535905 C98.6167152,46.4535905 99.2088816,46.5623532 99.6613233,46.7798788 C100.113765,46.9974045 100.512978,47.3368764 100.858963,47.7982944 L100.858963,47.7982944 L102.675384,46.1965146 C102.209635,45.5637128 101.57422,45.075928 100.76914,44.7331603 C99.9640601,44.3903926 99.0358892,44.2190088 97.9846275,44.2190088 C97.186201,44.2190088 96.467617,44.3310674 95.8288758,44.5551848 C95.1901345,44.7793021 94.6478698,45.0858155 94.2020816,45.474725 C93.7562935,45.8636345 93.4103086,46.3217567 93.1641271,46.8490916 C92.9179456,47.3764265 92.7948548,47.9433115 92.7948548,48.5497467 C92.7948548,49.6044164 93.0842844,50.4151938 93.6631437,50.9820789 C94.242003,51.5489639 95.0304492,51.9378734 96.0284824,52.1488073 L96.0284824,52.1488073 L97.0863976,52.366333 C97.618682,52.4717999 98.0411827,52.6563672 98.3538998,52.9200346 C98.6666169,53.183702 98.8229754,53.5462448 98.8229754,54.0076628 C98.8229754,54.6536481 98.5734671,55.1908705 98.0744505,55.6193301 C97.5754339,56.0477897 96.8468697,56.2620195 95.8887578,56.2620195 C95.1701738,56.2620195 94.5580468,56.12689 94.0523766,55.8566308 C93.5467065,55.5863717 93.1142254,55.1546163 92.7549335,54.5613645 L92.7549335,54.5613645 L90.8387097,56.0247188 C91.3310727,56.9211882 92.0130621,57.5572859 92.8846778,57.933012 C93.7562935,58.3087381 94.7576535,58.4966012 95.8887578,58.4966012 Z M107.66555,58.2593005 L108.064763,56.3015697 L106.088657,56.3015697 L107.3861,49.8944506 L109.48197,49.8944506 L109.881184,47.9367198 L107.785314,47.9367198 L108.344212,45.1088864 L106.088657,45.1088864 L105.729365,46.9084167 C105.66283,47.2643679 105.5597,47.5247394 105.419975,47.6895316 C105.28025,47.8543237 105.004128,47.9367198 104.591607,47.9367198 L104.591607,47.9367198 L103.853063,47.9367198 L103.47381,49.8944506 L104.97086,49.8944506 L103.793181,55.7083179 C103.766567,55.853335 103.746606,55.9950562 103.733299,56.1334816 C103.719992,56.2719071 103.713338,56.3938533 103.713338,56.4993202 C103.713338,57.6726403 104.431922,58.2593005 105.86909,58.2593005 L105.86909,58.2593005 L107.66555,58.2593005 Z M112.156699,58.2593005 L113.294457,52.6234087 C113.454142,51.819223 113.77684,51.2292671 114.262549,50.853541 C114.748259,50.4778148 115.443555,50.2899518 116.348439,50.2899518 L116.348439,50.2899518 L117.047062,50.2899518 L117.546079,47.9367198 L117.007141,47.9367198 C116.59462,47.9367198 116.225348,48.0092283 115.899324,48.1542454 C115.5733,48.2992625 115.280543,48.4871256 115.021055,48.7178346 C114.761566,48.9485436 114.538672,49.2023235 114.352372,49.4791744 C114.166073,49.7560252 114.013041,50.0328761 113.893277,50.3097269 L113.893277,50.3097269 L113.773513,50.3097269 L114.252569,47.9367198 L111.837329,47.9367198 L109.741459,58.2593005 L112.156699,58.2593005 Z M120.520218,58.4966012 C121.318644,58.4966012 121.977346,58.2757797 122.496323,57.8341367 C123.015301,57.3924938 123.487703,56.7498043 123.913531,55.9060684 L123.913531,55.9060684 L124.013334,55.9060684 L123.953452,56.2224694 C123.940145,56.2883862 123.923511,56.3806698 123.90355,56.4993202 C123.88359,56.6179706 123.873609,56.7300293 123.873609,56.8354962 C123.873609,57.2837309 124.026641,57.6330903 124.332705,57.8835743 C124.638768,58.1340584 125.031328,58.2593005 125.510384,58.2593005 L125.510384,58.2593005 L127.227001,58.2593005 L127.606253,56.3015697 L126.348732,56.3015697 L128.045388,47.9367198 L125.630148,47.9367198 L125.270856,49.6967001 L125.171052,49.6967001 C125.077903,49.1034482 124.7918,48.6222552 124.312744,48.2531207 C123.833688,47.8839864 123.241522,47.6994191 122.536245,47.6994191 C121.817661,47.6994191 121.155632,47.8806905 120.550159,48.2432332 C119.944685,48.605776 119.425708,49.1067441 118.993227,49.7461377 C118.560746,50.3855312 118.224741,51.1369835 117.985213,52.0004944 C117.745685,52.8640052 117.625921,53.7967289 117.625921,54.7986652 C117.625921,55.3523669 117.685803,55.853335 117.805567,56.3015697 C117.925331,56.7498043 118.104977,57.1387138 118.344505,57.4682981 C118.584033,57.7978824 118.88677,58.0516623 119.252715,58.2296378 C119.618661,58.4076134 120.041162,58.4966012 120.520218,58.4966012 Z M121.618054,56.4993202 C121.125691,56.4993202 120.749765,56.3411197 120.490277,56.0247188 C120.230788,55.7083179 120.101044,55.2864499 120.101044,54.759115 C120.101044,54.6009146 120.114351,54.4163474 120.140965,54.2054135 C120.167579,53.9944794 120.194193,53.8165039 120.220808,53.6714868 L120.220808,53.6714868 L120.500257,52.2476826 C120.846242,50.5470276 121.70455,49.6967001 123.075183,49.6967001 C123.713924,49.6967001 124.20296,49.8779714 124.542292,50.2405141 C124.881623,50.6030569 124.99806,51.0479957 124.891603,51.5753306 L124.891603,51.5753306 L124.532311,53.3353108 C124.439161,53.7571787 124.30609,54.1559758 124.133098,54.5317018 C123.960105,54.907428 123.740538,55.2403081 123.474396,55.5303423 C123.248175,55.7940098 122.978706,56.021423 122.665989,56.2125819 C122.353272,56.4037408 122.00396,56.4993202 121.618054,56.4993202 Z M133.81402,58.2593005 L134.213233,56.3015697 L132.237128,56.3015697 L133.534571,49.8944506 L135.630441,49.8944506 L136.029654,47.9367198 L133.933784,47.9367198 L134.492683,45.1088864 L132.237128,45.1088864 L131.877836,46.9084167 C131.8113,47.2643679 131.70817,47.5247394 131.568445,47.6895316 C131.428721,47.8543237 131.152598,47.9367198 130.740078,47.9367198 L130.740078,47.9367198 L130.001533,47.9367198 L129.622281,49.8944506 L131.11933,49.8944506 L129.941651,55.7083179 C129.915037,55.853335 129.895076,55.9950562 129.881769,56.1334816 C129.868462,56.2719071 129.861809,56.3938533 129.861809,56.4993202 C129.861809,57.6726403 130.580393,58.2593005 132.01756,58.2593005 L132.01756,58.2593005 L133.81402,58.2593005 Z M140.341157,58.4966012 C141.20612,58.4966012 141.994566,58.3285131 142.706496,57.9923371 C143.418426,57.6561612 144.100416,57.0727969 144.752464,56.2422444 L144.752464,56.2422444 L143.255414,55.0161909 C142.802973,55.5698924 142.363838,55.9588019 141.938011,56.1829193 C141.512183,56.4070366 141.039781,56.5190953 140.520803,56.5190953 C139.802219,56.5190953 139.283242,56.3477115 138.963872,56.0049437 C138.644501,55.6621761 138.484816,55.2073498 138.484816,54.6404647 C138.484816,54.5218143 138.504776,54.3306554 138.544698,54.066988 C140.900056,54.0142546 142.613346,53.6846702 143.684569,53.0782351 C144.755791,52.4717999 145.291402,51.6280641 145.291402,50.5470276 C145.291402,50.0196927 145.178292,49.571458 144.952071,49.2023235 C144.72585,48.8331892 144.439747,48.5398591 144.093762,48.3223335 C143.747777,48.1048078 143.361871,47.9466073 142.936044,47.8477321 C142.510216,47.7488568 142.091042,47.6994191 141.678522,47.6994191 C140.826867,47.6994191 140.058381,47.8740988 139.373065,48.2234582 C138.687749,48.5728175 138.102236,49.0441231 137.616527,49.6373749 C137.130817,50.2306266 136.754891,50.9128661 136.488749,51.6840935 C136.222607,52.4553207 136.089536,53.2562106 136.089536,54.0867631 C136.089536,55.4710172 136.445501,56.5520537 137.157431,57.3298727 C137.869362,58.1076917 138.930604,58.4966012 140.341157,58.4966012 Z M138.804186,52.4849833 L138.90399,51.9906068 C139.050368,51.2391546 139.356431,50.6459029 139.82218,50.2108516 C140.287929,49.7758002 140.853481,49.5582746 141.518837,49.5582746 C141.678522,49.5582746 141.841534,49.5747538 142.007873,49.6077123 C142.174212,49.6406707 142.323917,49.6999959 142.456988,49.7856878 C142.590059,49.8713797 142.699843,49.9900301 142.786339,50.1416388 C142.872835,50.2932476 142.916083,50.4877023 142.916083,50.7250031 C142.916083,50.9754872 142.862855,51.1996045 142.756398,51.3973551 C142.649941,51.5951057 142.447007,51.7664895 142.147598,51.9115066 C141.848188,52.0565237 141.429014,52.1784699 140.890076,52.2773452 C140.351138,52.3762205 139.655841,52.4454332 138.804186,52.4849833 L138.804186,52.4849833 Z M149.44322,62.4516129 C150.600939,62.4516129 151.559051,62.3461459 152.317556,62.1352119 C153.076061,61.924278 153.674881,61.6441313 154.114016,61.294772 C154.55315,60.9454126 154.862541,60.5532073 155.042187,60.118156 C155.221833,59.6831047 155.311656,59.2414617 155.311656,58.793227 C155.311656,57.9494912 155.03886,57.3133935 154.493268,56.8849339 C153.947677,56.4564743 153.089368,56.2422444 151.918343,56.2422444 L151.918343,56.2422444 L149.42326,56.2422444 C149.024046,56.2422444 148.734617,56.1862151 148.554971,56.0741565 C148.375325,55.9620978 148.285502,55.7940098 148.285502,55.5698924 C148.285502,55.3194084 148.378652,55.1051785 148.564951,54.9272031 C148.751251,54.7492275 148.997432,54.614098 149.303496,54.5218143 C149.516409,54.5877313 149.73265,54.6305772 149.952217,54.6503522 C150.171785,54.6701273 150.414639,54.6800149 150.680782,54.6800149 C151.479208,54.6800149 152.174505,54.571252 152.766671,54.3537264 C153.358837,54.1362007 153.8512,53.8428707 154.24376,53.4737362 C154.63632,53.1046018 154.932403,52.6860298 155.13201,52.21802 C155.331616,51.7500103 155.43142,51.2589297 155.43142,50.7447782 C155.43142,49.7428419 155.065474,48.9782063 154.333583,48.4508714 L154.333583,48.4508714 L154.433386,48.0355951 L156.469374,48.0355951 L156.848627,46.1174144 L155.311656,46.1174144 C154.406772,46.1174144 153.854527,46.6183826 153.654921,47.6203189 L153.654921,47.6203189 L153.575078,47.996045 C153.308936,47.9037614 153.022833,47.8312529 152.716769,47.7785193 C152.410706,47.7257858 152.084682,47.6994191 151.738697,47.6994191 C150.94027,47.6994191 150.244974,47.8081819 149.652807,48.0257076 C149.060641,48.2432332 148.568278,48.5365632 148.175718,48.9056977 C147.783158,49.2748321 147.490402,49.6934042 147.297449,50.161414 C147.104496,50.6294236 147.008019,51.1205043 147.008019,51.6346558 C147.008019,52.8475261 147.500382,53.7110369 148.485108,54.2251885 L148.485108,54.2251885 L148.465148,54.3636139 C147.826407,54.4954476 147.294122,54.7294525 146.868295,55.0656285 C146.442467,55.4018045 146.229553,55.8467433 146.229553,56.400445 C146.229553,56.756396 146.319376,57.0596136 146.499022,57.3100977 C146.678668,57.5605817 146.954791,57.7385573 147.32739,57.8440242 L147.32739,57.8440242 L147.307429,57.9824496 C146.628767,58.1538335 146.089829,58.4076134 145.690615,58.7437894 C145.291402,59.0799654 145.091795,59.5578626 145.091795,60.1774811 C145.091795,60.5070655 145.164985,60.810283 145.311363,61.0871338 C145.457741,61.3639847 145.700596,61.6045812 146.039927,61.8089234 C146.379258,62.0132658 146.825047,62.1714662 147.377292,62.2835249 C147.929537,62.3955836 148.61818,62.4516129 149.44322,62.4516129 Z M150.92031,52.9793598 C149.869048,52.9793598 149.343417,52.5706752 149.343417,51.7533061 C149.343417,51.6873893 149.346744,51.6016974 149.353397,51.4962304 C149.360051,51.3907634 149.389992,51.2061962 149.44322,50.9425287 C149.549677,50.454744 149.769245,50.0724262 150.101922,49.7955753 C150.4346,49.5187245 150.900349,49.3802991 151.499169,49.3802991 C152.55043,49.3802991 153.076061,49.7889837 153.076061,50.6063527 C153.076061,50.6722696 153.072735,50.7579615 153.066081,50.8634285 C153.059427,50.9688955 153.029486,51.1534627 152.976258,51.4171302 C152.869801,51.9049149 152.650234,52.2872327 152.317556,52.5640835 C151.984878,52.8409344 151.519129,52.9793598 150.92031,52.9793598 Z M150.261608,60.7509578 L149.063968,60.7509578 C148.358691,60.7509578 147.866328,60.642195 147.586879,60.4246694 C147.307429,60.2071438 147.167705,59.9269971 147.167705,59.5842294 C147.167705,59.3601121 147.22426,59.1359947 147.33737,58.9118774 C147.450481,58.6877601 147.640107,58.4966012 147.906249,58.3384006 L147.906249,58.3384006 L151.379405,58.3384006 C151.95161,58.3384006 152.34417,58.4240926 152.557084,58.5954765 C152.769998,58.7668603 152.876455,59.004161 152.876455,59.3073786 C152.876455,59.7160631 152.680175,60.0588308 152.287615,60.3356817 C151.895055,60.6125324 151.219719,60.7509578 150.261608,60.7509578 L150.261608,60.7509578 Z M160.202018,46.4338153 C160.774224,46.4338153 161.176764,46.3118692 161.409639,46.0679767 C161.642513,45.8240843 161.798872,45.537346 161.878714,45.2077617 C161.94525,44.9045441 161.978518,44.6540601 161.978518,44.4563095 C161.978518,44.1794587 161.878714,43.9553413 161.679108,43.7839574 C161.479501,43.6125737 161.16013,43.5268817 160.720996,43.5268817 C160.14879,43.5268817 159.74625,43.648828 159.513376,43.8927203 C159.280501,44.1366127 159.124143,44.4233511 159.0443,44.7529354 C158.977764,45.0561529 158.944497,45.306637 158.944497,45.5043876 C158.944497,45.7812384 159.0443,46.0053557 159.243907,46.1767396 C159.443513,46.3481234 159.762884,46.4338153 160.202018,46.4338153 Z M160.24194,58.2593005 L160.641153,56.3015697 L159.383631,56.3015697 L161.060327,47.9367198 L158.645087,47.9367198 L156.968391,56.2817946 C156.928469,56.4795451 156.908509,56.6443373 156.908509,56.7761711 C156.908509,57.2244057 157.058214,57.5836527 157.357624,57.8539117 C157.657034,58.1241709 158.059574,58.2593005 158.565244,58.2593005 L158.565244,58.2593005 L160.24194,58.2593005 Z M166.649313,58.4966012 C167.514275,58.4966012 168.302721,58.3285131 169.014652,57.9923371 C169.726582,57.6561612 170.408572,57.0727969 171.06062,56.2422444 L171.06062,56.2422444 L169.56357,55.0161909 C169.111128,55.5698924 168.671994,55.9588019 168.246166,56.1829193 C167.820339,56.4070366 167.347936,56.5190953 166.828959,56.5190953 C166.110375,56.5190953 165.591398,56.3477115 165.272027,56.0049437 C164.952657,55.6621761 164.792971,55.2073498 164.792971,54.6404647 C164.792971,54.5218143 164.812932,54.3306554 164.852853,54.066988 C167.208212,54.0142546 168.921502,53.6846702 169.992724,53.0782351 C171.063947,52.4717999 171.599558,51.6280641 171.599558,50.5470276 C171.599558,50.0196927 171.486447,49.571458 171.260227,49.2023235 C171.034006,48.8331892 170.747903,48.5398591 170.401918,48.3223335 C170.055933,48.1048078 169.670027,47.9466073 169.244199,47.8477321 C168.818372,47.7488568 168.399198,47.6994191 167.986678,47.6994191 C167.135023,47.6994191 166.366537,47.8740988 165.681221,48.2234582 C164.995905,48.5728175 164.410392,49.0441231 163.924682,49.6373749 C163.438973,50.2306266 163.063047,50.9128661 162.796905,51.6840935 C162.530763,52.4553207 162.397692,53.2562106 162.397692,54.0867631 C162.397692,55.4710172 162.753657,56.5520537 163.465587,57.3298727 C164.177517,58.1076917 165.238759,58.4966012 166.649313,58.4966012 Z M165.112342,52.4849833 L165.212145,51.9906068 C165.358523,51.2391546 165.664587,50.6459029 166.130336,50.2108516 C166.596085,49.7758002 167.161637,49.5582746 167.826992,49.5582746 C167.986678,49.5582746 168.14969,49.5747538 168.316029,49.6077123 C168.482367,49.6406707 168.632072,49.6999959 168.765143,49.7856878 C168.898215,49.8713797 169.007998,49.9900301 169.094494,50.1416388 C169.180991,50.2932476 169.224239,50.4877023 169.224239,50.7250031 C169.224239,50.9754872 169.17101,51.1996045 169.064553,51.3973551 C168.958097,51.5951057 168.755163,51.7664895 168.455753,51.9115066 C168.156343,52.0565237 167.737169,52.1784699 167.198231,52.2773452 C166.659293,52.3762205 165.963997,52.4454332 165.112342,52.4849833 L165.112342,52.4849833 Z M173.934956,62.2143122 L175.092674,56.4993202 L175.192477,56.4993202 C175.285627,57.092572 175.57173,57.573765 176.050786,57.9428995 C176.529842,58.312034 177.122008,58.4966012 177.827285,58.4966012 C178.545869,58.4966012 179.207898,58.3153298 179.813371,57.952787 C180.418845,57.5902443 180.937822,57.0892761 181.370303,56.4498826 C181.802784,55.810489 182.138789,55.0590368 182.378317,54.1955259 C182.617845,53.332015 182.737609,52.3992914 182.737609,51.3973551 C182.737609,50.8568368 182.677727,50.3591645 182.557963,49.9043381 C182.438199,49.4495118 182.258553,49.0606023 182.019025,48.7376097 C181.779497,48.4146171 181.47676,48.1608371 181.110814,47.97627 C180.744869,47.7917027 180.322368,47.6994191 179.843312,47.6994191 C179.044886,47.6994191 178.386184,47.9202406 177.867206,48.3618836 C177.348229,48.8035266 176.875827,49.4462159 176.449999,50.2899518 L176.449999,50.2899518 L176.350196,50.2899518 L176.829252,47.9367198 L174.414011,47.9367198 L171.519715,62.2143122 L173.934956,62.2143122 Z M177.288347,56.4993202 C176.649606,56.4993202 176.16057,56.3180489 175.821238,55.9555061 C175.481907,55.5929634 175.36547,55.1480245 175.471927,54.6206896 L175.471927,54.6206896 L175.831219,52.8607094 C175.924368,52.4388415 176.05744,52.0400445 176.230432,51.6643184 C176.403424,51.2885922 176.622992,50.9557121 176.889134,50.6656779 C177.115355,50.4020105 177.384824,50.1745973 177.697541,49.9834384 C178.010258,49.7922795 178.35957,49.6967001 178.745476,49.6967001 C179.237839,49.6967001 179.613765,49.8549005 179.873253,50.1713015 C180.132742,50.4877023 180.262486,50.9095703 180.262486,51.4369052 C180.262486,51.5951057 180.249179,51.7796729 180.222565,51.9906068 C180.195951,52.2015408 180.169336,52.3795163 180.142722,52.5245334 L180.142722,52.5245334 L179.863273,53.9483376 C179.517288,55.6489927 178.65898,56.4993202 177.288347,56.4993202 Z M186.310567,58.2593005 L187.448325,52.6234087 C187.608011,51.819223 187.930708,51.2292671 188.416418,50.853541 C188.902127,50.4778148 189.597423,50.2899518 190.502307,50.2899518 L190.502307,50.2899518 L191.20093,50.2899518 L191.699947,47.9367198 L191.161009,47.9367198 C190.748489,47.9367198 190.379216,48.0092283 190.053192,48.1542454 C189.727168,48.2992625 189.434411,48.4871256 189.174923,48.7178346 C188.915434,48.9485436 188.69254,49.2023235 188.50624,49.4791744 C188.319941,49.7560252 188.166909,50.0328761 188.047145,50.3097269 L188.047145,50.3097269 L187.927381,50.3097269 L188.406437,47.9367198 L185.991197,47.9367198 L183.895327,58.2593005 L186.310567,58.2593005 Z M195.831804,58.4966012 C196.603617,58.4966012 197.318874,58.3285131 197.977576,57.9923371 C198.636278,57.6561612 199.205157,57.1947431 199.684213,56.608083 C200.163269,56.021423 200.535868,55.3325917 200.80201,54.5415895 C201.068152,53.7505871 201.201223,52.9002595 201.201223,51.9906068 C201.201223,50.6063527 200.835278,49.5450913 200.103386,48.8068224 C199.371495,48.0685536 198.393423,47.6994191 197.169169,47.6994191 C196.384049,47.6994191 195.665466,47.8675071 195.013417,48.2036831 C194.361368,48.5398591 193.795817,49.0012771 193.316761,49.5879372 C192.837705,50.1745973 192.465106,50.8634285 192.198963,51.6544309 C191.932821,52.4454332 191.79975,53.2957607 191.79975,54.2054135 C191.79975,55.5896676 192.165696,56.650929 192.897587,57.3891979 C193.629478,58.1274667 194.607551,58.4966012 195.831804,58.4966012 Z M195.971529,56.5190953 C195.386016,56.5190953 194.943555,56.3477115 194.644145,56.0049437 C194.344735,55.6621761 194.19503,55.2139414 194.19503,54.6602398 C194.19503,54.5152227 194.201683,54.3899806 194.21499,54.2845136 C194.228297,54.1790467 194.248258,54.0735797 194.274873,53.9681128 L194.274873,53.9681128 L194.634165,52.2279076 C194.79385,51.3973551 195.08328,50.7645532 195.502453,50.3295019 C195.921627,49.8944506 196.430624,49.6769249 197.029444,49.6769249 C197.614957,49.6769249 198.057419,49.8483088 198.356829,50.1910765 C198.656239,50.5338442 198.805944,50.9820789 198.805944,51.5357805 C198.805944,51.6807975 198.79929,51.8027438 198.785983,51.9016191 C198.772676,52.0004944 198.752715,52.1158489 198.7261,52.2476826 L198.7261,52.2476826 L198.366809,53.9681128 C198.207124,54.7986652 197.917694,55.431467 197.49852,55.8665184 C197.079346,56.3015697 196.570349,56.5190953 195.971529,56.5190953 Z M209.784309,58.2593005 L210.183522,56.3015697 L204.893946,56.3015697 L211.221477,49.8746755 L211.62069,47.9367198 L203.736228,47.9367198 L203.356974,49.8944506 L208.30722,49.8944506 L201.99965,56.3015697 L201.620397,58.2593005 L209.784309,58.2593005 Z M216.191682,58.4966012 C217.056644,58.4966012 217.84509,58.3285131 218.55702,57.9923371 C219.268951,57.6561612 219.95094,57.0727969 220.602989,56.2422444 L220.602989,56.2422444 L219.105939,55.0161909 C218.653498,55.5698924 218.214363,55.9588019 217.788535,56.1829193 C217.362708,56.4070366 216.890305,56.5190953 216.371329,56.5190953 C215.652744,56.5190953 215.133767,56.3477115 214.814397,56.0049437 C214.495026,55.6621761 214.335341,55.2073498 214.335341,54.6404647 C214.335341,54.5218143 214.355301,54.3306554 214.395222,54.066988 C216.750581,54.0142546 218.463871,53.6846702 219.535093,53.0782351 C220.606315,52.4717999 221.141927,51.6280641 221.141927,50.5470276 C221.141927,50.0196927 221.028817,49.571458 220.802596,49.2023235 C220.576374,48.8331892 220.290272,48.5398591 219.944287,48.3223335 C219.598302,48.1048078 219.212396,47.9466073 218.786568,47.8477321 C218.360741,47.7488568 217.941567,47.6994191 217.529047,47.6994191 C216.677392,47.6994191 215.908906,47.8740988 215.22359,48.2234582 C214.538273,48.5728175 213.952761,49.0441231 213.467051,49.6373749 C212.981342,50.2306266 212.605416,50.9128661 212.339274,51.6840935 C212.073131,52.4553207 211.94006,53.2562106 211.94006,54.0867631 C211.94006,55.4710172 212.296026,56.5520537 213.007956,57.3298727 C213.719887,58.1076917 214.781129,58.4966012 216.191682,58.4966012 Z M214.654711,52.4849833 L214.754514,51.9906068 C214.900892,51.2391546 215.206956,50.6459029 215.672705,50.2108516 C216.138454,49.7758002 216.704005,49.5582746 217.369361,49.5582746 C217.529047,49.5582746 217.692059,49.5747538 217.858398,49.6077123 C218.024737,49.6406707 218.174442,49.6999959 218.307512,49.7856878 C218.440583,49.8713797 218.550367,49.9900301 218.636864,50.1416388 C218.723359,50.2932476 218.766608,50.4877023 218.766608,50.7250031 C218.766608,50.9754872 218.713379,51.1996045 218.606922,51.3973551 C218.500466,51.5951057 218.297532,51.7664895 217.998122,51.9115066 C217.698712,52.0565237 217.279539,52.1784699 216.7406,52.2773452 C216.201663,52.3762205 215.506366,52.4454332 214.654711,52.4849833 L214.654711,52.4849833 Z M225.653037,58.4966012 C226.345006,58.4966012 226.963787,58.4010217 227.509379,58.2098628 C228.05497,58.0187039 228.514065,57.7583323 228.886665,57.428748 C229.259263,57.0991636 229.54204,56.7102542 229.734992,56.2620195 C229.927946,55.8137848 230.024423,55.3391834 230.024423,54.8382153 C230.024423,54.0076628 229.778241,53.3748609 229.285878,52.9398097 C228.793514,52.5047584 228.108199,52.2213159 227.22993,52.0894821 L227.22993,52.0894821 L226.251857,51.9510567 C225.82603,51.8851399 225.533273,51.7598978 225.373588,51.5753306 C225.213903,51.3907634 225.13406,51.1732378 225.13406,50.9227537 C225.13406,50.5404358 225.277111,50.2339225 225.563214,50.0032134 C225.849316,49.7725044 226.271818,49.6571499 226.830716,49.6571499 C227.336387,49.6571499 227.785501,49.7527294 228.178061,49.9438883 C228.570621,50.1350472 228.893318,50.3888271 229.146153,50.705228 L229.146153,50.705228 L230.703085,49.3011988 C229.824816,48.2333457 228.573948,47.6994191 226.95048,47.6994191 C226.245204,47.6994191 225.62975,47.7982944 225.104119,47.996045 C224.578488,48.1937956 224.14268,48.4541672 223.796696,48.7771598 C223.45071,49.1001524 223.194549,49.4758785 223.02821,49.9043381 C222.861871,50.3327977 222.778701,50.7843283 222.778701,51.2589297 C222.778701,52.0894821 223.024883,52.722284 223.517246,53.1573354 C224.009609,53.5923866 224.688272,53.8758291 225.553233,54.0076628 L225.553233,54.0076628 L226.531306,54.1460882 C226.970441,54.2120051 227.269851,54.3372471 227.429536,54.5218143 C227.589221,54.7063816 227.669064,54.9239073 227.669064,55.1743913 C227.669064,55.5567091 227.506052,55.8797017 227.180028,56.1433691 C226.854004,56.4070366 226.364967,56.5388704 225.712919,56.5388704 C225.114099,56.5388704 224.605102,56.4268117 224.185928,56.2026944 C223.766754,55.978577 223.404135,55.6621761 223.098072,55.2534916 L223.098072,55.2534916 L221.561101,56.6575207 C222.000235,57.2639558 222.582422,57.7220781 223.307659,58.0318873 C224.032896,58.3416966 224.814689,58.4966012 225.653037,58.4966012 Z M235.294038,58.4966012 C235.986008,58.4966012 236.604788,58.4010217 237.15038,58.2098628 C237.695971,58.0187039 238.155066,57.7583323 238.527666,57.428748 C238.900264,57.0991636 239.183041,56.7102542 239.375994,56.2620195 C239.568947,55.8137848 239.665423,55.3391834 239.665423,54.8382153 C239.665423,54.0076628 239.419242,53.3748609 238.926879,52.9398097 C238.434515,52.5047584 237.7492,52.2213159 236.87093,52.0894821 L236.87093,52.0894821 L235.892858,51.9510567 C235.46703,51.8851399 235.174274,51.7598978 235.014588,51.5753306 C234.854903,51.3907634 234.775061,51.1732378 234.775061,50.9227537 C234.775061,50.5404358 234.918112,50.2339225 235.204215,50.0032134 C235.490317,49.7725044 235.912819,49.6571499 236.471717,49.6571499 C236.977388,49.6571499 237.426502,49.7527294 237.819062,49.9438883 C238.211622,50.1350472 238.534319,50.3888271 238.787154,50.705228 L238.787154,50.705228 L240.344086,49.3011988 C239.465817,48.2333457 238.214949,47.6994191 236.591481,47.6994191 C235.886205,47.6994191 235.270751,47.7982944 234.74512,47.996045 C234.219489,48.1937956 233.783681,48.4541672 233.437697,48.7771598 C233.091712,49.1001524 232.835549,49.4758785 232.66921,49.9043381 C232.502872,50.3327977 232.419702,50.7843283 232.419702,51.2589297 C232.419702,52.0894821 232.665884,52.722284 233.158246,53.1573354 C233.65061,53.5923866 234.329273,53.8758291 235.194234,54.0076628 L235.194234,54.0076628 L236.172307,54.1460882 C236.611442,54.2120051 236.910852,54.3372471 237.070537,54.5218143 C237.230222,54.7063816 237.310065,54.9239073 237.310065,55.1743913 C237.310065,55.5567091 237.147053,55.8797017 236.821029,56.1433691 C236.495005,56.4070366 236.005968,56.5388704 235.35392,56.5388704 C234.7551,56.5388704 234.246103,56.4268117 233.826929,56.2026944 C233.407755,55.978577 233.045136,55.6621761 232.739073,55.2534916 L232.739073,55.2534916 L231.202102,56.6575207 C231.641236,57.2639558 232.223422,57.7220781 232.94866,58.0318873 C233.673897,58.3416966 234.45569,58.4966012 235.294038,58.4966012 Z"/>
  </g>
</svg>
